<?xml version="1.0" encoding="UTF-8"?>
<svg xmlns="http://www.w3.org/2000/svg" width="1200" height="800" viewBox="0 0 1200 800" font-family="'Segoe UI', system-ui, -apple-system, sans-serif">
<rect width="1200" height="800" fill="#0d1117"/>
<text x="40" y="38" font-family="'Segoe UI', system-ui, -apple-system, sans-serif" font-size="22" font-weight="700" fill="#e6edf3">git-poster</text>
<text x="1160" y="38" font-family="'Segoe UI', system-ui, -apple-system, sans-serif" font-size="14" fill="#8b949e" text-anchor="end">git-poster</text>
<text x="40" y="60" font-family="'Segoe UI', system-ui, -apple-system, sans-serif" font-size="13" fill="#8b949e">Turn your Git history into a beautiful poster</text>
<line x1="40" y1="68" x2="1160" y2="68" stroke="#30363d" stroke-width="1"/>
<text x="66" y="121" font-family="'Segoe UI', system-ui, -apple-system, sans-serif" font-size="9" fill="#8b949e" text-anchor="end">Mon</text>
<text x="66" y="151" font-family="'Segoe UI', system-ui, -apple-system, sans-serif" font-size="9" fill="#8b949e" text-anchor="end">Wed</text>
<text x="66" y="181" font-family="'Segoe UI', system-ui, -apple-system, sans-serif" font-size="9" fill="#8b949e" text-anchor="end">Fri</text>
<rect x="70.0" y="96.0" width="12.0" height="12.0" rx="2" ry="2" fill="#161b22"/>
<text x="70.0" y="92.0" font-family="'SF Mono', 'Fira Code', 'Cascadia Code', monospace" font-size="9" fill="#8b949e">Mar</text>
<rect x="70.0" y="111.0" width="12.0" height="12.0" rx="2" ry="2" fill="#161b22"/>
<rect x="70.0" y="126.0" width="12.0" height="12.0" rx="2" ry="2" fill="#161b22"/>
<rect x="70.0" y="141.0" width="12.0" height="12.0" rx="2" ry="2" fill="#161b22"/>
<rect x="70.0" y="156.0" width="12.0" height="12.0" rx="2" ry="2" fill="#161b22"/>
<rect x="70.0" y="171.0" width="12.0" height="12.0" rx="2" ry="2" fill="#161b22"/>
<rect x="70.0" y="186.0" width="12.0" height="12.0" rx="2" ry="2" fill="#161b22"/>
<rect x="85.0" y="96.0" width="12.0" height="12.0" rx="2" ry="2" fill="#161b22"/>
<rect x="85.0" y="111.0" width="12.0" height="12.0" rx="2" ry="2" fill="#161b22"/>
<rect x="85.0" y="126.0" width="12.0" height="12.0" rx="2" ry="2" fill="#161b22"/>
<rect x="85.0" y="141.0" width="12.0" height="12.0" rx="2" ry="2" fill="#161b22"/>
<rect x="85.0" y="156.0" width="12.0" height="12.0" rx="2" ry="2" fill="#161b22"/>
<rect x="85.0" y="171.0" width="12.0" height="12.0" rx="2" ry="2" fill="#161b22"/>
<rect x="85.0" y="186.0" width="12.0" height="12.0" rx="2" ry="2" fill="#161b22"/>
<rect x="100.0" y="96.0" width="12.0" height="12.0" rx="2" ry="2" fill="#161b22"/>
<rect x="100.0" y="111.0" width="12.0" height="12.0" rx="2" ry="2" fill="#161b22"/>
<rect x="100.0" y="126.0" width="12.0" height="12.0" rx="2" ry="2" fill="#161b22"/>
<rect x="100.0" y="141.0" width="12.0" height="12.0" rx="2" ry="2" fill="#161b22"/>
<rect x="100.0" y="156.0" width="12.0" height="12.0" rx="2" ry="2" fill="#161b22"/>
<rect x="100.0" y="171.0" width="12.0" height="12.0" rx="2" ry="2" fill="#161b22"/>
<rect x="100.0" y="186.0" width="12.0" height="12.0" rx="2" ry="2" fill="#161b22"/>
<rect x="115.0" y="96.0" width="12.0" height="12.0" rx="2" ry="2" fill="#161b22"/>
<text x="115.0" y="92.0" font-family="'SF Mono', 'Fira Code', 'Cascadia Code', monospace" font-size="9" fill="#8b949e">Apr</text>
<rect x="115.0" y="111.0" width="12.0" height="12.0" rx="2" ry="2" fill="#161b22"/>
<rect x="115.0" y="126.0" width="12.0" height="12.0" rx="2" ry="2" fill="#161b22"/>
<rect x="115.0" y="141.0" width="12.0" height="12.0" rx="2" ry="2" fill="#161b22"/>
<rect x="115.0" y="156.0" width="12.0" height="12.0" rx="2" ry="2" fill="#161b22"/>
<rect x="115.0" y="171.0" width="12.0" height="12.0" rx="2" ry="2" fill="#161b22"/>
<rect x="115.0" y="186.0" width="12.0" height="12.0" rx="2" ry="2" fill="#161b22"/>
<rect x="130.0" y="96.0" width="12.0" height="12.0" rx="2" ry="2" fill="#161b22"/>
<rect x="130.0" y="111.0" width="12.0" height="12.0" rx="2" ry="2" fill="#161b22"/>
<rect x="130.0" y="126.0" width="12.0" height="12.0" rx="2" ry="2" fill="#161b22"/>
<rect x="130.0" y="141.0" width="12.0" height="12.0" rx="2" ry="2" fill="#161b22"/>
<rect x="130.0" y="156.0" width="12.0" height="12.0" rx="2" ry="2" fill="#161b22"/>
<rect x="130.0" y="171.0" width="12.0" height="12.0" rx="2" ry="2" fill="#161b22"/>
<rect x="130.0" y="186.0" width="12.0" height="12.0" rx="2" ry="2" fill="#161b22"/>
<rect x="145.0" y="96.0" width="12.0" height="12.0" rx="2" ry="2" fill="#161b22"/>
<rect x="145.0" y="111.0" width="12.0" height="12.0" rx="2" ry="2" fill="#161b22"/>
<rect x="145.0" y="126.0" width="12.0" height="12.0" rx="2" ry="2" fill="#161b22"/>
<rect x="145.0" y="141.0" width="12.0" height="12.0" rx="2" ry="2" fill="#161b22"/>
<rect x="145.0" y="156.0" width="12.0" height="12.0" rx="2" ry="2" fill="#161b22"/>
<rect x="145.0" y="171.0" width="12.0" height="12.0" rx="2" ry="2" fill="#161b22"/>
<rect x="145.0" y="186.0" width="12.0" height="12.0" rx="2" ry="2" fill="#161b22"/>
<rect x="160.0" y="96.0" width="12.0" height="12.0" rx="2" ry="2" fill="#161b22"/>
<rect x="160.0" y="111.0" width="12.0" height="12.0" rx="2" ry="2" fill="#161b22"/>
<rect x="160.0" y="126.0" width="12.0" height="12.0" rx="2" ry="2" fill="#161b22"/>
<rect x="160.0" y="141.0" width="12.0" height="12.0" rx="2" ry="2" fill="#161b22"/>
<rect x="160.0" y="156.0" width="12.0" height="12.0" rx="2" ry="2" fill="#161b22"/>
<rect x="160.0" y="171.0" width="12.0" height="12.0" rx="2" ry="2" fill="#161b22"/>
<rect x="160.0" y="186.0" width="12.0" height="12.0" rx="2" ry="2" fill="#161b22"/>
<rect x="175.0" y="96.0" width="12.0" height="12.0" rx="2" ry="2" fill="#161b22"/>
<text x="175.0" y="92.0" font-family="'SF Mono', 'Fira Code', 'Cascadia Code', monospace" font-size="9" fill="#8b949e">May</text>
<rect x="175.0" y="111.0" width="12.0" height="12.0" rx="2" ry="2" fill="#161b22"/>
<rect x="175.0" y="126.0" width="12.0" height="12.0" rx="2" ry="2" fill="#161b22"/>
<rect x="175.0" y="141.0" width="12.0" height="12.0" rx="2" ry="2" fill="#161b22"/>
<rect x="175.0" y="156.0" width="12.0" height="12.0" rx="2" ry="2" fill="#161b22"/>
<rect x="175.0" y="171.0" width="12.0" height="12.0" rx="2" ry="2" fill="#161b22"/>
<rect x="175.0" y="186.0" width="12.0" height="12.0" rx="2" ry="2" fill="#161b22"/>
<rect x="190.0" y="96.0" width="12.0" height="12.0" rx="2" ry="2" fill="#161b22"/>
<rect x="190.0" y="111.0" width="12.0" height="12.0" rx="2" ry="2" fill="#161b22"/>
<rect x="190.0" y="126.0" width="12.0" height="12.0" rx="2" ry="2" fill="#161b22"/>
<rect x="190.0" y="141.0" width="12.0" height="12.0" rx="2" ry="2" fill="#161b22"/>
<rect x="190.0" y="156.0" width="12.0" height="12.0" rx="2" ry="2" fill="#161b22"/>
<rect x="190.0" y="171.0" width="12.0" height="12.0" rx="2" ry="2" fill="#161b22"/>
<rect x="190.0" y="186.0" width="12.0" height="12.0" rx="2" ry="2" fill="#161b22"/>
<rect x="205.0" y="96.0" width="12.0" height="12.0" rx="2" ry="2" fill="#161b22"/>
<rect x="205.0" y="111.0" width="12.0" height="12.0" rx="2" ry="2" fill="#161b22"/>
<rect x="205.0" y="126.0" width="12.0" height="12.0" rx="2" ry="2" fill="#161b22"/>
<rect x="205.0" y="141.0" width="12.0" height="12.0" rx="2" ry="2" fill="#161b22"/>
<rect x="205.0" y="156.0" width="12.0" height="12.0" rx="2" ry="2" fill="#161b22"/>
<rect x="205.0" y="171.0" width="12.0" height="12.0" rx="2" ry="2" fill="#161b22"/>
<rect x="205.0" y="186.0" width="12.0" height="12.0" rx="2" ry="2" fill="#161b22"/>
<rect x="220.0" y="96.0" width="12.0" height="12.0" rx="2" ry="2" fill="#161b22"/>
<rect x="220.0" y="111.0" width="12.0" height="12.0" rx="2" ry="2" fill="#161b22"/>
<rect x="220.0" y="126.0" width="12.0" height="12.0" rx="2" ry="2" fill="#161b22"/>
<rect x="220.0" y="141.0" width="12.0" height="12.0" rx="2" ry="2" fill="#161b22"/>
<rect x="220.0" y="156.0" width="12.0" height="12.0" rx="2" ry="2" fill="#161b22"/>
<rect x="220.0" y="171.0" width="12.0" height="12.0" rx="2" ry="2" fill="#161b22"/>
<rect x="220.0" y="186.0" width="12.0" height="12.0" rx="2" ry="2" fill="#161b22"/>
<rect x="235.0" y="96.0" width="12.0" height="12.0" rx="2" ry="2" fill="#161b22"/>
<text x="235.0" y="92.0" font-family="'SF Mono', 'Fira Code', 'Cascadia Code', monospace" font-size="9" fill="#8b949e">Jun</text>
<rect x="235.0" y="111.0" width="12.0" height="12.0" rx="2" ry="2" fill="#161b22"/>
<rect x="235.0" y="126.0" width="12.0" height="12.0" rx="2" ry="2" fill="#161b22"/>
<rect x="235.0" y="141.0" width="12.0" height="12.0" rx="2" ry="2" fill="#161b22"/>
<rect x="235.0" y="156.0" width="12.0" height="12.0" rx="2" ry="2" fill="#161b22"/>
<rect x="235.0" y="171.0" width="12.0" height="12.0" rx="2" ry="2" fill="#161b22"/>
<rect x="235.0" y="186.0" width="12.0" height="12.0" rx="2" ry="2" fill="#161b22"/>
<rect x="250.0" y="96.0" width="12.0" height="12.0" rx="2" ry="2" fill="#161b22"/>
<rect x="250.0" y="111.0" width="12.0" height="12.0" rx="2" ry="2" fill="#161b22"/>
<rect x="250.0" y="126.0" width="12.0" height="12.0" rx="2" ry="2" fill="#161b22"/>
<rect x="250.0" y="141.0" width="12.0" height="12.0" rx="2" ry="2" fill="#161b22"/>
<rect x="250.0" y="156.0" width="12.0" height="12.0" rx="2" ry="2" fill="#161b22"/>
<rect x="250.0" y="171.0" width="12.0" height="12.0" rx="2" ry="2" fill="#161b22"/>
<rect x="250.0" y="186.0" width="12.0" height="12.0" rx="2" ry="2" fill="#161b22"/>
<rect x="265.0" y="96.0" width="12.0" height="12.0" rx="2" ry="2" fill="#161b22"/>
<rect x="265.0" y="111.0" width="12.0" height="12.0" rx="2" ry="2" fill="#161b22"/>
<rect x="265.0" y="126.0" width="12.0" height="12.0" rx="2" ry="2" fill="#161b22"/>
<rect x="265.0" y="141.0" width="12.0" height="12.0" rx="2" ry="2" fill="#161b22"/>
<rect x="265.0" y="156.0" width="12.0" height="12.0" rx="2" ry="2" fill="#161b22"/>
<rect x="265.0" y="171.0" width="12.0" height="12.0" rx="2" ry="2" fill="#161b22"/>
<rect x="265.0" y="186.0" width="12.0" height="12.0" rx="2" ry="2" fill="#161b22"/>
<rect x="280.0" y="96.0" width="12.0" height="12.0" rx="2" ry="2" fill="#161b22"/>
<rect x="280.0" y="111.0" width="12.0" height="12.0" rx="2" ry="2" fill="#161b22"/>
<rect x="280.0" y="126.0" width="12.0" height="12.0" rx="2" ry="2" fill="#161b22"/>
<rect x="280.0" y="141.0" width="12.0" height="12.0" rx="2" ry="2" fill="#161b22"/>
<rect x="280.0" y="156.0" width="12.0" height="12.0" rx="2" ry="2" fill="#161b22"/>
<rect x="280.0" y="171.0" width="12.0" height="12.0" rx="2" ry="2" fill="#161b22"/>
<rect x="280.0" y="186.0" width="12.0" height="12.0" rx="2" ry="2" fill="#161b22"/>
<rect x="295.0" y="96.0" width="12.0" height="12.0" rx="2" ry="2" fill="#161b22"/>
<rect x="295.0" y="111.0" width="12.0" height="12.0" rx="2" ry="2" fill="#161b22"/>
<rect x="295.0" y="126.0" width="12.0" height="12.0" rx="2" ry="2" fill="#161b22"/>
<rect x="295.0" y="141.0" width="12.0" height="12.0" rx="2" ry="2" fill="#161b22"/>
<rect x="295.0" y="156.0" width="12.0" height="12.0" rx="2" ry="2" fill="#161b22"/>
<rect x="295.0" y="171.0" width="12.0" height="12.0" rx="2" ry="2" fill="#161b22"/>
<rect x="295.0" y="186.0" width="12.0" height="12.0" rx="2" ry="2" fill="#161b22"/>
<rect x="310.0" y="96.0" width="12.0" height="12.0" rx="2" ry="2" fill="#161b22"/>
<text x="310.0" y="92.0" font-family="'SF Mono', 'Fira Code', 'Cascadia Code', monospace" font-size="9" fill="#8b949e">Jul</text>
<rect x="310.0" y="111.0" width="12.0" height="12.0" rx="2" ry="2" fill="#161b22"/>
<rect x="310.0" y="126.0" width="12.0" height="12.0" rx="2" ry="2" fill="#161b22"/>
<rect x="310.0" y="141.0" width="12.0" height="12.0" rx="2" ry="2" fill="#161b22"/>
<rect x="310.0" y="156.0" width="12.0" height="12.0" rx="2" ry="2" fill="#161b22"/>
<rect x="310.0" y="171.0" width="12.0" height="12.0" rx="2" ry="2" fill="#161b22"/>
<rect x="310.0" y="186.0" width="12.0" height="12.0" rx="2" ry="2" fill="#161b22"/>
<rect x="325.0" y="96.0" width="12.0" height="12.0" rx="2" ry="2" fill="#161b22"/>
<rect x="325.0" y="111.0" width="12.0" height="12.0" rx="2" ry="2" fill="#161b22"/>
<rect x="325.0" y="126.0" width="12.0" height="12.0" rx="2" ry="2" fill="#161b22"/>
<rect x="325.0" y="141.0" width="12.0" height="12.0" rx="2" ry="2" fill="#161b22"/>
<rect x="325.0" y="156.0" width="12.0" height="12.0" rx="2" ry="2" fill="#161b22"/>
<rect x="325.0" y="171.0" width="12.0" height="12.0" rx="2" ry="2" fill="#161b22"/>
<rect x="325.0" y="186.0" width="12.0" height="12.0" rx="2" ry="2" fill="#161b22"/>
<rect x="340.0" y="96.0" width="12.0" height="12.0" rx="2" ry="2" fill="#161b22"/>
<rect x="340.0" y="111.0" width="12.0" height="12.0" rx="2" ry="2" fill="#161b22"/>
<rect x="340.0" y="126.0" width="12.0" height="12.0" rx="2" ry="2" fill="#161b22"/>
<rect x="340.0" y="141.0" width="12.0" height="12.0" rx="2" ry="2" fill="#161b22"/>
<rect x="340.0" y="156.0" width="12.0" height="12.0" rx="2" ry="2" fill="#161b22"/>
<rect x="340.0" y="171.0" width="12.0" height="12.0" rx="2" ry="2" fill="#161b22"/>
<rect x="340.0" y="186.0" width="12.0" height="12.0" rx="2" ry="2" fill="#161b22"/>
<rect x="355.0" y="96.0" width="12.0" height="12.0" rx="2" ry="2" fill="#161b22"/>
<rect x="355.0" y="111.0" width="12.0" height="12.0" rx="2" ry="2" fill="#161b22"/>
<rect x="355.0" y="126.0" width="12.0" height="12.0" rx="2" ry="2" fill="#161b22"/>
<rect x="355.0" y="141.0" width="12.0" height="12.0" rx="2" ry="2" fill="#161b22"/>
<rect x="355.0" y="156.0" width="12.0" height="12.0" rx="2" ry="2" fill="#161b22"/>
<rect x="355.0" y="171.0" width="12.0" height="12.0" rx="2" ry="2" fill="#161b22"/>
<rect x="355.0" y="186.0" width="12.0" height="12.0" rx="2" ry="2" fill="#161b22"/>
<rect x="370.0" y="96.0" width="12.0" height="12.0" rx="2" ry="2" fill="#161b22"/>
<text x="370.0" y="92.0" font-family="'SF Mono', 'Fira Code', 'Cascadia Code', monospace" font-size="9" fill="#8b949e">Aug</text>
<rect x="370.0" y="111.0" width="12.0" height="12.0" rx="2" ry="2" fill="#161b22"/>
<rect x="370.0" y="126.0" width="12.0" height="12.0" rx="2" ry="2" fill="#161b22"/>
<rect x="370.0" y="141.0" width="12.0" height="12.0" rx="2" ry="2" fill="#161b22"/>
<rect x="370.0" y="156.0" width="12.0" height="12.0" rx="2" ry="2" fill="#161b22"/>
<rect x="370.0" y="171.0" width="12.0" height="12.0" rx="2" ry="2" fill="#161b22"/>
<rect x="370.0" y="186.0" width="12.0" height="12.0" rx="2" ry="2" fill="#161b22"/>
<rect x="385.0" y="96.0" width="12.0" height="12.0" rx="2" ry="2" fill="#161b22"/>
<rect x="385.0" y="111.0" width="12.0" height="12.0" rx="2" ry="2" fill="#161b22"/>
<rect x="385.0" y="126.0" width="12.0" height="12.0" rx="2" ry="2" fill="#161b22"/>
<rect x="385.0" y="141.0" width="12.0" height="12.0" rx="2" ry="2" fill="#161b22"/>
<rect x="385.0" y="156.0" width="12.0" height="12.0" rx="2" ry="2" fill="#161b22"/>
<rect x="385.0" y="171.0" width="12.0" height="12.0" rx="2" ry="2" fill="#161b22"/>
<rect x="385.0" y="186.0" width="12.0" height="12.0" rx="2" ry="2" fill="#161b22"/>
<rect x="400.0" y="96.0" width="12.0" height="12.0" rx="2" ry="2" fill="#161b22"/>
<rect x="400.0" y="111.0" width="12.0" height="12.0" rx="2" ry="2" fill="#161b22"/>
<rect x="400.0" y="126.0" width="12.0" height="12.0" rx="2" ry="2" fill="#161b22"/>
<rect x="400.0" y="141.0" width="12.0" height="12.0" rx="2" ry="2" fill="#161b22"/>
<rect x="400.0" y="156.0" width="12.0" height="12.0" rx="2" ry="2" fill="#161b22"/>
<rect x="400.0" y="171.0" width="12.0" height="12.0" rx="2" ry="2" fill="#161b22"/>
<rect x="400.0" y="186.0" width="12.0" height="12.0" rx="2" ry="2" fill="#161b22"/>
<rect x="415.0" y="96.0" width="12.0" height="12.0" rx="2" ry="2" fill="#161b22"/>
<rect x="415.0" y="111.0" width="12.0" height="12.0" rx="2" ry="2" fill="#161b22"/>
<rect x="415.0" y="126.0" width="12.0" height="12.0" rx="2" ry="2" fill="#161b22"/>
<rect x="415.0" y="141.0" width="12.0" height="12.0" rx="2" ry="2" fill="#161b22"/>
<rect x="415.0" y="156.0" width="12.0" height="12.0" rx="2" ry="2" fill="#161b22"/>
<rect x="415.0" y="171.0" width="12.0" height="12.0" rx="2" ry="2" fill="#161b22"/>
<rect x="415.0" y="186.0" width="12.0" height="12.0" rx="2" ry="2" fill="#161b22"/>
<rect x="430.0" y="96.0" width="12.0" height="12.0" rx="2" ry="2" fill="#161b22"/>
<rect x="430.0" y="111.0" width="12.0" height="12.0" rx="2" ry="2" fill="#161b22"/>
<rect x="430.0" y="126.0" width="12.0" height="12.0" rx="2" ry="2" fill="#161b22"/>
<rect x="430.0" y="141.0" width="12.0" height="12.0" rx="2" ry="2" fill="#161b22"/>
<rect x="430.0" y="156.0" width="12.0" height="12.0" rx="2" ry="2" fill="#161b22"/>
<rect x="430.0" y="171.0" width="12.0" height="12.0" rx="2" ry="2" fill="#161b22"/>
<rect x="430.0" y="186.0" width="12.0" height="12.0" rx="2" ry="2" fill="#161b22"/>
<rect x="445.0" y="96.0" width="12.0" height="12.0" rx="2" ry="2" fill="#161b22"/>
<text x="445.0" y="92.0" font-family="'SF Mono', 'Fira Code', 'Cascadia Code', monospace" font-size="9" fill="#8b949e">Sep</text>
<rect x="445.0" y="111.0" width="12.0" height="12.0" rx="2" ry="2" fill="#161b22"/>
<rect x="445.0" y="126.0" width="12.0" height="12.0" rx="2" ry="2" fill="#161b22"/>
<rect x="445.0" y="141.0" width="12.0" height="12.0" rx="2" ry="2" fill="#161b22"/>
<rect x="445.0" y="156.0" width="12.0" height="12.0" rx="2" ry="2" fill="#161b22"/>
<rect x="445.0" y="171.0" width="12.0" height="12.0" rx="2" ry="2" fill="#161b22"/>
<rect x="445.0" y="186.0" width="12.0" height="12.0" rx="2" ry="2" fill="#161b22"/>
<rect x="460.0" y="96.0" width="12.0" height="12.0" rx="2" ry="2" fill="#161b22"/>
<rect x="460.0" y="111.0" width="12.0" height="12.0" rx="2" ry="2" fill="#161b22"/>
<rect x="460.0" y="126.0" width="12.0" height="12.0" rx="2" ry="2" fill="#161b22"/>
<rect x="460.0" y="141.0" width="12.0" height="12.0" rx="2" ry="2" fill="#161b22"/>
<rect x="460.0" y="156.0" width="12.0" height="12.0" rx="2" ry="2" fill="#161b22"/>
<rect x="460.0" y="171.0" width="12.0" height="12.0" rx="2" ry="2" fill="#161b22"/>
<rect x="460.0" y="186.0" width="12.0" height="12.0" rx="2" ry="2" fill="#161b22"/>
<rect x="475.0" y="96.0" width="12.0" height="12.0" rx="2" ry="2" fill="#161b22"/>
<rect x="475.0" y="111.0" width="12.0" height="12.0" rx="2" ry="2" fill="#161b22"/>
<rect x="475.0" y="126.0" width="12.0" height="12.0" rx="2" ry="2" fill="#161b22"/>
<rect x="475.0" y="141.0" width="12.0" height="12.0" rx="2" ry="2" fill="#161b22"/>
<rect x="475.0" y="156.0" width="12.0" height="12.0" rx="2" ry="2" fill="#161b22"/>
<rect x="475.0" y="171.0" width="12.0" height="12.0" rx="2" ry="2" fill="#161b22"/>
<rect x="475.0" y="186.0" width="12.0" height="12.0" rx="2" ry="2" fill="#161b22"/>
<rect x="490.0" y="96.0" width="12.0" height="12.0" rx="2" ry="2" fill="#161b22"/>
<rect x="490.0" y="111.0" width="12.0" height="12.0" rx="2" ry="2" fill="#161b22"/>
<rect x="490.0" y="126.0" width="12.0" height="12.0" rx="2" ry="2" fill="#161b22"/>
<rect x="490.0" y="141.0" width="12.0" height="12.0" rx="2" ry="2" fill="#161b22"/>
<rect x="490.0" y="156.0" width="12.0" height="12.0" rx="2" ry="2" fill="#161b22"/>
<rect x="490.0" y="171.0" width="12.0" height="12.0" rx="2" ry="2" fill="#161b22"/>
<rect x="490.0" y="186.0" width="12.0" height="12.0" rx="2" ry="2" fill="#161b22"/>
<rect x="505.0" y="96.0" width="12.0" height="12.0" rx="2" ry="2" fill="#161b22"/>
<text x="505.0" y="92.0" font-family="'SF Mono', 'Fira Code', 'Cascadia Code', monospace" font-size="9" fill="#8b949e">Oct</text>
<rect x="505.0" y="111.0" width="12.0" height="12.0" rx="2" ry="2" fill="#161b22"/>
<rect x="505.0" y="126.0" width="12.0" height="12.0" rx="2" ry="2" fill="#161b22"/>
<rect x="505.0" y="141.0" width="12.0" height="12.0" rx="2" ry="2" fill="#161b22"/>
<rect x="505.0" y="156.0" width="12.0" height="12.0" rx="2" ry="2" fill="#161b22"/>
<rect x="505.0" y="171.0" width="12.0" height="12.0" rx="2" ry="2" fill="#161b22"/>
<rect x="505.0" y="186.0" width="12.0" height="12.0" rx="2" ry="2" fill="#161b22"/>
<rect x="520.0" y="96.0" width="12.0" height="12.0" rx="2" ry="2" fill="#161b22"/>
<rect x="520.0" y="111.0" width="12.0" height="12.0" rx="2" ry="2" fill="#161b22"/>
<rect x="520.0" y="126.0" width="12.0" height="12.0" rx="2" ry="2" fill="#161b22"/>
<rect x="520.0" y="141.0" width="12.0" height="12.0" rx="2" ry="2" fill="#161b22"/>
<rect x="520.0" y="156.0" width="12.0" height="12.0" rx="2" ry="2" fill="#161b22"/>
<rect x="520.0" y="171.0" width="12.0" height="12.0" rx="2" ry="2" fill="#161b22"/>
<rect x="520.0" y="186.0" width="12.0" height="12.0" rx="2" ry="2" fill="#161b22"/>
<rect x="535.0" y="96.0" width="12.0" height="12.0" rx="2" ry="2" fill="#161b22"/>
<rect x="535.0" y="111.0" width="12.0" height="12.0" rx="2" ry="2" fill="#161b22"/>
<rect x="535.0" y="126.0" width="12.0" height="12.0" rx="2" ry="2" fill="#161b22"/>
<rect x="535.0" y="141.0" width="12.0" height="12.0" rx="2" ry="2" fill="#161b22"/>
<rect x="535.0" y="156.0" width="12.0" height="12.0" rx="2" ry="2" fill="#161b22"/>
<rect x="535.0" y="171.0" width="12.0" height="12.0" rx="2" ry="2" fill="#161b22"/>
<rect x="535.0" y="186.0" width="12.0" height="12.0" rx="2" ry="2" fill="#161b22"/>
<rect x="550.0" y="96.0" width="12.0" height="12.0" rx="2" ry="2" fill="#161b22"/>
<rect x="550.0" y="111.0" width="12.0" height="12.0" rx="2" ry="2" fill="#161b22"/>
<rect x="550.0" y="126.0" width="12.0" height="12.0" rx="2" ry="2" fill="#161b22"/>
<rect x="550.0" y="141.0" width="12.0" height="12.0" rx="2" ry="2" fill="#161b22"/>
<rect x="550.0" y="156.0" width="12.0" height="12.0" rx="2" ry="2" fill="#161b22"/>
<rect x="550.0" y="171.0" width="12.0" height="12.0" rx="2" ry="2" fill="#161b22"/>
<rect x="550.0" y="186.0" width="12.0" height="12.0" rx="2" ry="2" fill="#161b22"/>
<rect x="565.0" y="96.0" width="12.0" height="12.0" rx="2" ry="2" fill="#161b22"/>
<text x="565.0" y="92.0" font-family="'SF Mono', 'Fira Code', 'Cascadia Code', monospace" font-size="9" fill="#8b949e">Nov</text>
<rect x="565.0" y="111.0" width="12.0" height="12.0" rx="2" ry="2" fill="#161b22"/>
<rect x="565.0" y="126.0" width="12.0" height="12.0" rx="2" ry="2" fill="#161b22"/>
<rect x="565.0" y="141.0" width="12.0" height="12.0" rx="2" ry="2" fill="#161b22"/>
<rect x="565.0" y="156.0" width="12.0" height="12.0" rx="2" ry="2" fill="#161b22"/>
<rect x="565.0" y="171.0" width="12.0" height="12.0" rx="2" ry="2" fill="#161b22"/>
<rect x="565.0" y="186.0" width="12.0" height="12.0" rx="2" ry="2" fill="#161b22"/>
<rect x="580.0" y="96.0" width="12.0" height="12.0" rx="2" ry="2" fill="#161b22"/>
<rect x="580.0" y="111.0" width="12.0" height="12.0" rx="2" ry="2" fill="#161b22"/>
<rect x="580.0" y="126.0" width="12.0" height="12.0" rx="2" ry="2" fill="#161b22"/>
<rect x="580.0" y="141.0" width="12.0" height="12.0" rx="2" ry="2" fill="#161b22"/>
<rect x="580.0" y="156.0" width="12.0" height="12.0" rx="2" ry="2" fill="#161b22"/>
<rect x="580.0" y="171.0" width="12.0" height="12.0" rx="2" ry="2" fill="#161b22"/>
<rect x="580.0" y="186.0" width="12.0" height="12.0" rx="2" ry="2" fill="#161b22"/>
<rect x="595.0" y="96.0" width="12.0" height="12.0" rx="2" ry="2" fill="#161b22"/>
<rect x="595.0" y="111.0" width="12.0" height="12.0" rx="2" ry="2" fill="#161b22"/>
<rect x="595.0" y="126.0" width="12.0" height="12.0" rx="2" ry="2" fill="#161b22"/>
<rect x="595.0" y="141.0" width="12.0" height="12.0" rx="2" ry="2" fill="#161b22"/>
<rect x="595.0" y="156.0" width="12.0" height="12.0" rx="2" ry="2" fill="#161b22"/>
<rect x="595.0" y="171.0" width="12.0" height="12.0" rx="2" ry="2" fill="#161b22"/>
<rect x="595.0" y="186.0" width="12.0" height="12.0" rx="2" ry="2" fill="#161b22"/>
<rect x="610.0" y="96.0" width="12.0" height="12.0" rx="2" ry="2" fill="#161b22"/>
<rect x="610.0" y="111.0" width="12.0" height="12.0" rx="2" ry="2" fill="#161b22"/>
<rect x="610.0" y="126.0" width="12.0" height="12.0" rx="2" ry="2" fill="#161b22"/>
<rect x="610.0" y="141.0" width="12.0" height="12.0" rx="2" ry="2" fill="#161b22"/>
<rect x="610.0" y="156.0" width="12.0" height="12.0" rx="2" ry="2" fill="#161b22"/>
<rect x="610.0" y="171.0" width="12.0" height="12.0" rx="2" ry="2" fill="#161b22"/>
<rect x="610.0" y="186.0" width="12.0" height="12.0" rx="2" ry="2" fill="#161b22"/>
<rect x="625.0" y="96.0" width="12.0" height="12.0" rx="2" ry="2" fill="#161b22"/>
<rect x="625.0" y="111.0" width="12.0" height="12.0" rx="2" ry="2" fill="#161b22"/>
<rect x="625.0" y="126.0" width="12.0" height="12.0" rx="2" ry="2" fill="#161b22"/>
<rect x="625.0" y="141.0" width="12.0" height="12.0" rx="2" ry="2" fill="#161b22"/>
<rect x="625.0" y="156.0" width="12.0" height="12.0" rx="2" ry="2" fill="#161b22"/>
<rect x="625.0" y="171.0" width="12.0" height="12.0" rx="2" ry="2" fill="#161b22"/>
<rect x="625.0" y="186.0" width="12.0" height="12.0" rx="2" ry="2" fill="#161b22"/>
<rect x="640.0" y="96.0" width="12.0" height="12.0" rx="2" ry="2" fill="#161b22"/>
<text x="640.0" y="92.0" font-family="'SF Mono', 'Fira Code', 'Cascadia Code', monospace" font-size="9" fill="#8b949e">Dec</text>
<rect x="640.0" y="111.0" width="12.0" height="12.0" rx="2" ry="2" fill="#161b22"/>
<rect x="640.0" y="126.0" width="12.0" height="12.0" rx="2" ry="2" fill="#161b22"/>
<rect x="640.0" y="141.0" width="12.0" height="12.0" rx="2" ry="2" fill="#161b22"/>
<rect x="640.0" y="156.0" width="12.0" height="12.0" rx="2" ry="2" fill="#161b22"/>
<rect x="640.0" y="171.0" width="12.0" height="12.0" rx="2" ry="2" fill="#161b22"/>
<rect x="640.0" y="186.0" width="12.0" height="12.0" rx="2" ry="2" fill="#161b22"/>
<rect x="655.0" y="96.0" width="12.0" height="12.0" rx="2" ry="2" fill="#161b22"/>
<rect x="655.0" y="111.0" width="12.0" height="12.0" rx="2" ry="2" fill="#161b22"/>
<rect x="655.0" y="126.0" width="12.0" height="12.0" rx="2" ry="2" fill="#161b22"/>
<rect x="655.0" y="141.0" width="12.0" height="12.0" rx="2" ry="2" fill="#161b22"/>
<rect x="655.0" y="156.0" width="12.0" height="12.0" rx="2" ry="2" fill="#161b22"/>
<rect x="655.0" y="171.0" width="12.0" height="12.0" rx="2" ry="2" fill="#161b22"/>
<rect x="655.0" y="186.0" width="12.0" height="12.0" rx="2" ry="2" fill="#161b22"/>
<rect x="670.0" y="96.0" width="12.0" height="12.0" rx="2" ry="2" fill="#161b22"/>
<rect x="670.0" y="111.0" width="12.0" height="12.0" rx="2" ry="2" fill="#161b22"/>
<rect x="670.0" y="126.0" width="12.0" height="12.0" rx="2" ry="2" fill="#161b22"/>
<rect x="670.0" y="141.0" width="12.0" height="12.0" rx="2" ry="2" fill="#161b22"/>
<rect x="670.0" y="156.0" width="12.0" height="12.0" rx="2" ry="2" fill="#161b22"/>
<rect x="670.0" y="171.0" width="12.0" height="12.0" rx="2" ry="2" fill="#161b22"/>
<rect x="670.0" y="186.0" width="12.0" height="12.0" rx="2" ry="2" fill="#161b22"/>
<rect x="685.0" y="96.0" width="12.0" height="12.0" rx="2" ry="2" fill="#161b22"/>
<rect x="685.0" y="111.0" width="12.0" height="12.0" rx="2" ry="2" fill="#161b22"/>
<rect x="685.0" y="126.0" width="12.0" height="12.0" rx="2" ry="2" fill="#161b22"/>
<rect x="685.0" y="141.0" width="12.0" height="12.0" rx="2" ry="2" fill="#161b22"/>
<rect x="685.0" y="156.0" width="12.0" height="12.0" rx="2" ry="2" fill="#161b22"/>
<rect x="685.0" y="171.0" width="12.0" height="12.0" rx="2" ry="2" fill="#161b22"/>
<rect x="685.0" y="186.0" width="12.0" height="12.0" rx="2" ry="2" fill="#161b22"/>
<rect x="700.0" y="96.0" width="12.0" height="12.0" rx="2" ry="2" fill="#161b22"/>
<text x="700.0" y="92.0" font-family="'SF Mono', 'Fira Code', 'Cascadia Code', monospace" font-size="9" fill="#8b949e">Jan</text>
<rect x="700.0" y="111.0" width="12.0" height="12.0" rx="2" ry="2" fill="#161b22"/>
<rect x="700.0" y="126.0" width="12.0" height="12.0" rx="2" ry="2" fill="#161b22"/>
<rect x="700.0" y="141.0" width="12.0" height="12.0" rx="2" ry="2" fill="#161b22"/>
<rect x="700.0" y="156.0" width="12.0" height="12.0" rx="2" ry="2" fill="#161b22"/>
<rect x="700.0" y="171.0" width="12.0" height="12.0" rx="2" ry="2" fill="#161b22"/>
<rect x="700.0" y="186.0" width="12.0" height="12.0" rx="2" ry="2" fill="#161b22"/>
<rect x="715.0" y="96.0" width="12.0" height="12.0" rx="2" ry="2" fill="#161b22"/>
<rect x="715.0" y="111.0" width="12.0" height="12.0" rx="2" ry="2" fill="#161b22"/>
<rect x="715.0" y="126.0" width="12.0" height="12.0" rx="2" ry="2" fill="#161b22"/>
<rect x="715.0" y="141.0" width="12.0" height="12.0" rx="2" ry="2" fill="#161b22"/>
<rect x="715.0" y="156.0" width="12.0" height="12.0" rx="2" ry="2" fill="#161b22"/>
<rect x="715.0" y="171.0" width="12.0" height="12.0" rx="2" ry="2" fill="#161b22"/>
<rect x="715.0" y="186.0" width="12.0" height="12.0" rx="2" ry="2" fill="#161b22"/>
<rect x="730.0" y="96.0" width="12.0" height="12.0" rx="2" ry="2" fill="#161b22"/>
<rect x="730.0" y="111.0" width="12.0" height="12.0" rx="2" ry="2" fill="#161b22"/>
<rect x="730.0" y="126.0" width="12.0" height="12.0" rx="2" ry="2" fill="#161b22"/>
<rect x="730.0" y="141.0" width="12.0" height="12.0" rx="2" ry="2" fill="#161b22"/>
<rect x="730.0" y="156.0" width="12.0" height="12.0" rx="2" ry="2" fill="#161b22"/>
<rect x="730.0" y="171.0" width="12.0" height="12.0" rx="2" ry="2" fill="#161b22"/>
<rect x="730.0" y="186.0" width="12.0" height="12.0" rx="2" ry="2" fill="#161b22"/>
<rect x="745.0" y="96.0" width="12.0" height="12.0" rx="2" ry="2" fill="#161b22"/>
<rect x="745.0" y="111.0" width="12.0" height="12.0" rx="2" ry="2" fill="#161b22"/>
<rect x="745.0" y="126.0" width="12.0" height="12.0" rx="2" ry="2" fill="#161b22"/>
<rect x="745.0" y="141.0" width="12.0" height="12.0" rx="2" ry="2" fill="#161b22"/>
<rect x="745.0" y="156.0" width="12.0" height="12.0" rx="2" ry="2" fill="#161b22"/>
<rect x="745.0" y="171.0" width="12.0" height="12.0" rx="2" ry="2" fill="#161b22"/>
<rect x="745.0" y="186.0" width="12.0" height="12.0" rx="2" ry="2" fill="#161b22"/>
<rect x="760.0" y="96.0" width="12.0" height="12.0" rx="2" ry="2" fill="#161b22"/>
<text x="760.0" y="92.0" font-family="'SF Mono', 'Fira Code', 'Cascadia Code', monospace" font-size="9" fill="#8b949e">Feb</text>
<rect x="760.0" y="111.0" width="12.0" height="12.0" rx="2" ry="2" fill="#161b22"/>
<rect x="760.0" y="126.0" width="12.0" height="12.0" rx="2" ry="2" fill="#161b22"/>
<rect x="760.0" y="141.0" width="12.0" height="12.0" rx="2" ry="2" fill="#161b22"/>
<rect x="760.0" y="156.0" width="12.0" height="12.0" rx="2" ry="2" fill="#161b22"/>
<rect x="760.0" y="171.0" width="12.0" height="12.0" rx="2" ry="2" fill="#161b22"/>
<rect x="760.0" y="186.0" width="12.0" height="12.0" rx="2" ry="2" fill="#161b22"/>
<rect x="775.0" y="96.0" width="12.0" height="12.0" rx="2" ry="2" fill="#161b22"/>
<rect x="775.0" y="111.0" width="12.0" height="12.0" rx="2" ry="2" fill="#161b22"/>
<rect x="775.0" y="126.0" width="12.0" height="12.0" rx="2" ry="2" fill="#161b22"/>
<rect x="775.0" y="141.0" width="12.0" height="12.0" rx="2" ry="2" fill="#161b22"/>
<rect x="775.0" y="156.0" width="12.0" height="12.0" rx="2" ry="2" fill="#161b22"/>
<rect x="775.0" y="171.0" width="12.0" height="12.0" rx="2" ry="2" fill="#161b22"/>
<rect x="775.0" y="186.0" width="12.0" height="12.0" rx="2" ry="2" fill="#161b22"/>
<rect x="790.0" y="96.0" width="12.0" height="12.0" rx="2" ry="2" fill="#161b22"/>
<rect x="790.0" y="111.0" width="12.0" height="12.0" rx="2" ry="2" fill="#161b22"/>
<rect x="790.0" y="126.0" width="12.0" height="12.0" rx="2" ry="2" fill="#161b22"/>
<rect x="790.0" y="141.0" width="12.0" height="12.0" rx="2" ry="2" fill="#161b22"/>
<rect x="790.0" y="156.0" width="12.0" height="12.0" rx="2" ry="2" fill="#161b22"/>
<rect x="790.0" y="171.0" width="12.0" height="12.0" rx="2" ry="2" fill="#161b22"/>
<rect x="790.0" y="186.0" width="12.0" height="12.0" rx="2" ry="2" fill="#161b22"/>
<rect x="805.0" y="96.0" width="12.0" height="12.0" rx="2" ry="2" fill="#161b22"/>
<rect x="805.0" y="111.0" width="12.0" height="12.0" rx="2" ry="2" fill="#161b22"/>
<rect x="805.0" y="126.0" width="12.0" height="12.0" rx="2" ry="2" fill="#161b22"/>
<rect x="805.0" y="141.0" width="12.0" height="12.0" rx="2" ry="2" fill="#161b22"/>
<rect x="805.0" y="156.0" width="12.0" height="12.0" rx="2" ry="2" fill="#161b22"/>
<rect x="805.0" y="171.0" width="12.0" height="12.0" rx="2" ry="2" fill="#161b22"/>
<rect x="805.0" y="186.0" width="12.0" height="12.0" rx="2" ry="2" fill="#161b22"/>
<rect x="820.0" y="96.0" width="12.0" height="12.0" rx="2" ry="2" fill="#161b22"/>
<text x="820.0" y="92.0" font-family="'SF Mono', 'Fira Code', 'Cascadia Code', monospace" font-size="9" fill="#8b949e">Mar</text>
<rect x="820.0" y="111.0" width="12.0" height="12.0" rx="2" ry="2" fill="#161b22"/>
<rect x="820.0" y="126.0" width="12.0" height="12.0" rx="2" ry="2" fill="#161b22"/>
<rect x="820.0" y="141.0" width="12.0" height="12.0" rx="2" ry="2" fill="#161b22"/>
<rect x="820.0" y="156.0" width="12.0" height="12.0" rx="2" ry="2" fill="#161b22"/>
<rect x="820.0" y="171.0" width="12.0" height="12.0" rx="2" ry="2" fill="#161b22"/>
<rect x="820.0" y="186.0" width="12.0" height="12.0" rx="2" ry="2" fill="#161b22"/>
<rect x="835.0" y="96.0" width="12.0" height="12.0" rx="2" ry="2" fill="#161b22"/>
<rect x="835.0" y="111.0" width="12.0" height="12.0" rx="2" ry="2" fill="#161b22"/>
<rect x="835.0" y="126.0" width="12.0" height="12.0" rx="2" ry="2" fill="#161b22"/>
<rect x="835.0" y="141.0" width="12.0" height="12.0" rx="2" ry="2" fill="#161b22"/>
<rect x="835.0" y="156.0" width="12.0" height="12.0" rx="2" ry="2" fill="#161b22"/>
<rect x="835.0" y="171.0" width="12.0" height="12.0" rx="2" ry="2" fill="#39d353"/>
<rect x="835.0" y="186.0" width="12.0" height="12.0" rx="2" ry="2" fill="#161b22"/>
<text x="70" y="209.0" font-family="'Segoe UI', system-ui, -apple-system, sans-serif" font-size="9" fill="#8b949e">Last 52 weeks</text>
<rect x="40.0" y="235.0" width="360.0" height="40.0" rx="6" ry="6" fill="#161b22" stroke="#30363d" stroke-width="1"/>
<text x="52.0" y="249.0" font-family="'Segoe UI', system-ui, -apple-system, sans-serif" font-size="9" fill="#8b949e">Commits</text>
<text x="52.0" y="267.0" font-family="'Segoe UI', system-ui, -apple-system, sans-serif" font-size="18" font-weight="700" fill="#e6edf3">20</text>
<rect x="420.0" y="235.0" width="360.0" height="40.0" rx="6" ry="6" fill="#161b22" stroke="#30363d" stroke-width="1"/>
<text x="432.0" y="249.0" font-family="'Segoe UI', system-ui, -apple-system, sans-serif" font-size="9" fill="#8b949e">Authors</text>
<text x="432.0" y="267.0" font-family="'Segoe UI', system-ui, -apple-system, sans-serif" font-size="18" font-weight="700" fill="#e6edf3">1</text>
<rect x="800.0" y="235.0" width="360.0" height="40.0" rx="6" ry="6" fill="#161b22" stroke="#30363d" stroke-width="1"/>
<text x="812.0" y="249.0" font-family="'Segoe UI', system-ui, -apple-system, sans-serif" font-size="9" fill="#8b949e">Files</text>
<text x="812.0" y="267.0" font-family="'Segoe UI', system-ui, -apple-system, sans-serif" font-size="18" font-weight="700" fill="#e6edf3">30</text>
<rect x="40.0" y="285.0" width="360.0" height="40.0" rx="6" ry="6" fill="#161b22" stroke="#30363d" stroke-width="1"/>
<text x="52.0" y="299.0" font-family="'Segoe UI', system-ui, -apple-system, sans-serif" font-size="9" fill="#8b949e">First Commit</text>
<text x="52.0" y="317.0" font-family="'Segoe UI', system-ui, -apple-system, sans-serif" font-size="18" font-weight="700" fill="#e6edf3">Mar 13, 2026</text>
<rect x="420.0" y="285.0" width="360.0" height="40.0" rx="6" ry="6" fill="#161b22" stroke="#30363d" stroke-width="1"/>
<text x="432.0" y="299.0" font-family="'Segoe UI', system-ui, -apple-system, sans-serif" font-size="9" fill="#8b949e">Last Commit</text>
<text x="432.0" y="317.0" font-family="'Segoe UI', system-ui, -apple-system, sans-serif" font-size="18" font-weight="700" fill="#e6edf3">Mar 13, 2026</text>
<rect x="800.0" y="285.0" width="360.0" height="40.0" rx="6" ry="6" fill="#161b22" stroke="#30363d" stroke-width="1"/>
<text x="812.0" y="299.0" font-family="'Segoe UI', system-ui, -apple-system, sans-serif" font-size="9" fill="#8b949e">Active Days</text>
<text x="812.0" y="317.0" font-family="'Segoe UI', system-ui, -apple-system, sans-serif" font-size="18" font-weight="700" fill="#e6edf3">1</text>
<text x="40" y="352" font-family="'Segoe UI', system-ui, -apple-system, sans-serif" font-size="11" fill="#8b949e">Hourly Activity</text>
<rect x="40.0" y="378.0" width="21.3" height="110.0" rx="1" fill="#58a6ff" opacity="0.85"/>
<rect x="62.3" y="475.8" width="21.3" height="12.2" rx="1" fill="#58a6ff" opacity="0.85"/>
<rect x="84.6" y="488.0" width="21.3" height="0.0" rx="1" fill="#58a6ff" opacity="0.85"/>
<rect x="106.9" y="488.0" width="21.3" height="0.0" rx="1" fill="#58a6ff" opacity="0.85"/>
<rect x="129.2" y="488.0" width="21.3" height="0.0" rx="1" fill="#58a6ff" opacity="0.85"/>
<rect x="151.5" y="488.0" width="21.3" height="0.0" rx="1" fill="#58a6ff" opacity="0.85"/>
<rect x="173.8" y="488.0" width="21.3" height="0.0" rx="1" fill="#58a6ff" opacity="0.85"/>
<rect x="196.0" y="488.0" width="21.3" height="0.0" rx="1" fill="#58a6ff" opacity="0.85"/>
<rect x="218.3" y="488.0" width="21.3" height="0.0" rx="1" fill="#58a6ff" opacity="0.85"/>
<rect x="240.6" y="488.0" width="21.3" height="0.0" rx="1" fill="#58a6ff" opacity="0.85"/>
<rect x="262.9" y="488.0" width="21.3" height="0.0" rx="1" fill="#58a6ff" opacity="0.85"/>
<rect x="285.2" y="488.0" width="21.3" height="0.0" rx="1" fill="#58a6ff" opacity="0.85"/>
<rect x="307.5" y="488.0" width="21.3" height="0.0" rx="1" fill="#58a6ff" opacity="0.85"/>
<rect x="329.8" y="488.0" width="21.3" height="0.0" rx="1" fill="#58a6ff" opacity="0.85"/>
<rect x="352.1" y="488.0" width="21.3" height="0.0" rx="1" fill="#58a6ff" opacity="0.85"/>
<rect x="374.4" y="488.0" width="21.3" height="0.0" rx="1" fill="#58a6ff" opacity="0.85"/>
<rect x="396.7" y="488.0" width="21.3" height="0.0" rx="1" fill="#58a6ff" opacity="0.85"/>
<rect x="419.0" y="488.0" width="21.3" height="0.0" rx="1" fill="#58a6ff" opacity="0.85"/>
<rect x="441.3" y="488.0" width="21.3" height="0.0" rx="1" fill="#58a6ff" opacity="0.85"/>
<rect x="463.5" y="488.0" width="21.3" height="0.0" rx="1" fill="#58a6ff" opacity="0.85"/>
<rect x="485.8" y="488.0" width="21.3" height="0.0" rx="1" fill="#58a6ff" opacity="0.85"/>
<rect x="508.1" y="488.0" width="21.3" height="0.0" rx="1" fill="#58a6ff" opacity="0.85"/>
<rect x="530.4" y="488.0" width="21.3" height="0.0" rx="1" fill="#58a6ff" opacity="0.85"/>
<rect x="552.7" y="488.0" width="21.3" height="0.0" rx="1" fill="#58a6ff" opacity="0.85"/>
<text x="51.1" y="502.0" font-family="'Segoe UI', system-ui, -apple-system, sans-serif" font-size="9" fill="#8b949e" text-anchor="middle">0h</text>
<text x="184.9" y="502.0" font-family="'Segoe UI', system-ui, -apple-system, sans-serif" font-size="9" fill="#8b949e" text-anchor="middle">6h</text>
<text x="318.6" y="502.0" font-family="'Segoe UI', system-ui, -apple-system, sans-serif" font-size="9" fill="#8b949e" text-anchor="middle">12h</text>
<text x="452.4" y="502.0" font-family="'Segoe UI', system-ui, -apple-system, sans-serif" font-size="9" fill="#8b949e" text-anchor="middle">18h</text>
<text x="563.9" y="502.0" font-family="'Segoe UI', system-ui, -apple-system, sans-serif" font-size="9" fill="#8b949e" text-anchor="middle">23h</text>
<text x="615" y="352" font-family="'Segoe UI', system-ui, -apple-system, sans-serif" font-size="11" fill="#8b949e">Languages</text>
<rect x="615.0" y="366.0" width="254.3" height="12.0" fill="#3178c6"/>
<rect x="869.3" y="366.0" width="163.5" height="12.0" fill="#8b8b8b"/>
<rect x="1032.8" y="366.0" width="54.5" height="12.0" fill="#083fa1"/>
<rect x="1087.3" y="366.0" width="54.5" height="12.0" fill="#292929"/>
<rect x="1141.8" y="366.0" width="18.2" height="12.0" fill="#cb171e"/>
<rect x="615.0" y="384.0" width="10" height="10" rx="2" fill="#3178c6"/>
<text x="629.0" y="392.0" font-family="'Segoe UI', system-ui, -apple-system, sans-serif" font-size="11" fill="#e6edf3">TypeScript <tspan fill="#8b949e">47%</tspan></text>
<rect x="887.5" y="384.0" width="10" height="10" rx="2" fill="#8b8b8b"/>
<text x="901.5" y="392.0" font-family="'Segoe UI', system-ui, -apple-system, sans-serif" font-size="11" fill="#e6edf3">Other <tspan fill="#8b949e">30%</tspan></text>
<rect x="615.0" y="402.0" width="10" height="10" rx="2" fill="#083fa1"/>
<text x="629.0" y="410.0" font-family="'Segoe UI', system-ui, -apple-system, sans-serif" font-size="11" fill="#e6edf3">Markdown <tspan fill="#8b949e">10%</tspan></text>
<rect x="887.5" y="402.0" width="10" height="10" rx="2" fill="#292929"/>
<text x="901.5" y="410.0" font-family="'Segoe UI', system-ui, -apple-system, sans-serif" font-size="11" fill="#e6edf3">JSON <tspan fill="#8b949e">10%</tspan></text>
<rect x="615.0" y="420.0" width="10" height="10" rx="2" fill="#cb171e"/>
<text x="629.0" y="428.0" font-family="'Segoe UI', system-ui, -apple-system, sans-serif" font-size="11" fill="#e6edf3">YAML <tspan fill="#8b949e">3%</tspan></text>
<text x="40" y="502" font-family="'Segoe UI', system-ui, -apple-system, sans-serif" font-size="11" fill="#8b949e">Top Contributors</text>
<text x="40" y="522" font-family="'Segoe UI', system-ui, -apple-system, sans-serif" font-size="11" fill="#e6edf3">Kerim Gülen</text>
<rect x="190.0" y="512.0" width="870.0" height="14.0" rx="2" fill="#58a6ff" opacity="0.85"/>
<text x="1068.0" y="522" font-family="'Segoe UI', system-ui, -apple-system, sans-serif" font-size="11" fill="#8b949e">20 (100%)</text>
<text x="40" y="674" font-family="'Segoe UI', system-ui, -apple-system, sans-serif" font-size="11" fill="#8b949e">Insights</text>
<text x="40" y="688" font-family="'Segoe UI', system-ui, -apple-system, sans-serif" font-size="10" fill="#e6edf3">Busiest day: 2026-03-13 (20 commits)</text>
<text x="600" y="688" font-family="'Segoe UI', system-ui, -apple-system, sans-serif" font-size="10" fill="#e6edf3">Most active hour: 00:00 (18 commits)</text>
<text x="40" y="708" font-family="'Segoe UI', system-ui, -apple-system, sans-serif" font-size="10" fill="#e6edf3">Busiest weekday: Friday</text>
<text x="600" y="708" font-family="'Segoe UI', system-ui, -apple-system, sans-serif" font-size="10" fill="#e6edf3">Avg commits/active day: 20.0</text>
<text x="600" y="768" font-family="'Segoe UI', system-ui, -apple-system, sans-serif" font-size="11" fill="#8b949e" text-anchor="middle">Generated with git-poster</text>
</svg>