<?xml version="1.0" encoding="UTF-8"?>
<svg xmlns="http://www.w3.org/2000/svg" xmlns:xlink="http://www.w3.org/1999/xlink" width="1200" height="800" viewBox="0 0 1200 800" font-family="'Segoe UI', system-ui, -apple-system, sans-serif">
<rect width="1200" height="800" fill="#0b1a0b"/>
<text x="40" y="38" font-family="'Segoe UI', system-ui, -apple-system, sans-serif" font-size="22" font-weight="700" fill="#b8d4b8">git-poster</text>
<text x="1160" y="38" font-family="'Segoe UI', system-ui, -apple-system, sans-serif" font-size="14" fill="#5a8a5a" text-anchor="end">git-poster</text>
<text x="40" y="60" font-family="'Segoe UI', system-ui, -apple-system, sans-serif" font-size="13" fill="#5a8a5a">Turn your Git history into a beautiful poster</text>
<line x1="40" y1="68" x2="1160" y2="68" stroke="#1e3a1e" stroke-width="1"/>
<text x="66" y="121" font-family="'Segoe UI', system-ui, -apple-system, sans-serif" font-size="9" fill="#5a8a5a" text-anchor="end">Mon</text>
<text x="66" y="151" font-family="'Segoe UI', system-ui, -apple-system, sans-serif" font-size="9" fill="#5a8a5a" text-anchor="end">Wed</text>
<text x="66" y="181" font-family="'Segoe UI', system-ui, -apple-system, sans-serif" font-size="9" fill="#5a8a5a" text-anchor="end">Fri</text>
<rect x="70.0" y="96.0" width="12.0" height="12.0" rx="2" ry="2" fill="#132413"/>
<text x="70.0" y="92.0" font-family="'SF Mono', 'Fira Code', 'Cascadia Code', monospace" font-size="9" fill="#5a8a5a">Mar</text>
<rect x="70.0" y="111.0" width="12.0" height="12.0" rx="2" ry="2" fill="#132413"/>
<rect x="70.0" y="126.0" width="12.0" height="12.0" rx="2" ry="2" fill="#132413"/>
<rect x="70.0" y="141.0" width="12.0" height="12.0" rx="2" ry="2" fill="#132413"/>
<rect x="70.0" y="156.0" width="12.0" height="12.0" rx="2" ry="2" fill="#132413"/>
<rect x="70.0" y="171.0" width="12.0" height="12.0" rx="2" ry="2" fill="#132413"/>
<rect x="70.0" y="186.0" width="12.0" height="12.0" rx="2" ry="2" fill="#132413"/>
<rect x="85.0" y="96.0" width="12.0" height="12.0" rx="2" ry="2" fill="#132413"/>
<rect x="85.0" y="111.0" width="12.0" height="12.0" rx="2" ry="2" fill="#132413"/>
<rect x="85.0" y="126.0" width="12.0" height="12.0" rx="2" ry="2" fill="#132413"/>
<rect x="85.0" y="141.0" width="12.0" height="12.0" rx="2" ry="2" fill="#132413"/>
<rect x="85.0" y="156.0" width="12.0" height="12.0" rx="2" ry="2" fill="#132413"/>
<rect x="85.0" y="171.0" width="12.0" height="12.0" rx="2" ry="2" fill="#132413"/>
<rect x="85.0" y="186.0" width="12.0" height="12.0" rx="2" ry="2" fill="#132413"/>
<rect x="100.0" y="96.0" width="12.0" height="12.0" rx="2" ry="2" fill="#132413"/>
<rect x="100.0" y="111.0" width="12.0" height="12.0" rx="2" ry="2" fill="#132413"/>
<rect x="100.0" y="126.0" width="12.0" height="12.0" rx="2" ry="2" fill="#132413"/>
<rect x="100.0" y="141.0" width="12.0" height="12.0" rx="2" ry="2" fill="#132413"/>
<rect x="100.0" y="156.0" width="12.0" height="12.0" rx="2" ry="2" fill="#132413"/>
<rect x="100.0" y="171.0" width="12.0" height="12.0" rx="2" ry="2" fill="#132413"/>
<rect x="100.0" y="186.0" width="12.0" height="12.0" rx="2" ry="2" fill="#132413"/>
<rect x="115.0" y="96.0" width="12.0" height="12.0" rx="2" ry="2" fill="#132413"/>
<text x="115.0" y="92.0" font-family="'SF Mono', 'Fira Code', 'Cascadia Code', monospace" font-size="9" fill="#5a8a5a">Apr</text>
<rect x="115.0" y="111.0" width="12.0" height="12.0" rx="2" ry="2" fill="#132413"/>
<rect x="115.0" y="126.0" width="12.0" height="12.0" rx="2" ry="2" fill="#132413"/>
<rect x="115.0" y="141.0" width="12.0" height="12.0" rx="2" ry="2" fill="#132413"/>
<rect x="115.0" y="156.0" width="12.0" height="12.0" rx="2" ry="2" fill="#132413"/>
<rect x="115.0" y="171.0" width="12.0" height="12.0" rx="2" ry="2" fill="#132413"/>
<rect x="115.0" y="186.0" width="12.0" height="12.0" rx="2" ry="2" fill="#132413"/>
<rect x="130.0" y="96.0" width="12.0" height="12.0" rx="2" ry="2" fill="#132413"/>
<rect x="130.0" y="111.0" width="12.0" height="12.0" rx="2" ry="2" fill="#132413"/>
<rect x="130.0" y="126.0" width="12.0" height="12.0" rx="2" ry="2" fill="#132413"/>
<rect x="130.0" y="141.0" width="12.0" height="12.0" rx="2" ry="2" fill="#132413"/>
<rect x="130.0" y="156.0" width="12.0" height="12.0" rx="2" ry="2" fill="#132413"/>
<rect x="130.0" y="171.0" width="12.0" height="12.0" rx="2" ry="2" fill="#132413"/>
<rect x="130.0" y="186.0" width="12.0" height="12.0" rx="2" ry="2" fill="#132413"/>
<rect x="145.0" y="96.0" width="12.0" height="12.0" rx="2" ry="2" fill="#132413"/>
<rect x="145.0" y="111.0" width="12.0" height="12.0" rx="2" ry="2" fill="#132413"/>
<rect x="145.0" y="126.0" width="12.0" height="12.0" rx="2" ry="2" fill="#132413"/>
<rect x="145.0" y="141.0" width="12.0" height="12.0" rx="2" ry="2" fill="#132413"/>
<rect x="145.0" y="156.0" width="12.0" height="12.0" rx="2" ry="2" fill="#132413"/>
<rect x="145.0" y="171.0" width="12.0" height="12.0" rx="2" ry="2" fill="#132413"/>
<rect x="145.0" y="186.0" width="12.0" height="12.0" rx="2" ry="2" fill="#132413"/>
<rect x="160.0" y="96.0" width="12.0" height="12.0" rx="2" ry="2" fill="#132413"/>
<rect x="160.0" y="111.0" width="12.0" height="12.0" rx="2" ry="2" fill="#132413"/>
<rect x="160.0" y="126.0" width="12.0" height="12.0" rx="2" ry="2" fill="#132413"/>
<rect x="160.0" y="141.0" width="12.0" height="12.0" rx="2" ry="2" fill="#132413"/>
<rect x="160.0" y="156.0" width="12.0" height="12.0" rx="2" ry="2" fill="#132413"/>
<rect x="160.0" y="171.0" width="12.0" height="12.0" rx="2" ry="2" fill="#132413"/>
<rect x="160.0" y="186.0" width="12.0" height="12.0" rx="2" ry="2" fill="#132413"/>
<rect x="175.0" y="96.0" width="12.0" height="12.0" rx="2" ry="2" fill="#132413"/>
<text x="175.0" y="92.0" font-family="'SF Mono', 'Fira Code', 'Cascadia Code', monospace" font-size="9" fill="#5a8a5a">May</text>
<rect x="175.0" y="111.0" width="12.0" height="12.0" rx="2" ry="2" fill="#132413"/>
<rect x="175.0" y="126.0" width="12.0" height="12.0" rx="2" ry="2" fill="#132413"/>
<rect x="175.0" y="141.0" width="12.0" height="12.0" rx="2" ry="2" fill="#132413"/>
<rect x="175.0" y="156.0" width="12.0" height="12.0" rx="2" ry="2" fill="#132413"/>
<rect x="175.0" y="171.0" width="12.0" height="12.0" rx="2" ry="2" fill="#132413"/>
<rect x="175.0" y="186.0" width="12.0" height="12.0" rx="2" ry="2" fill="#132413"/>
<rect x="190.0" y="96.0" width="12.0" height="12.0" rx="2" ry="2" fill="#132413"/>
<rect x="190.0" y="111.0" width="12.0" height="12.0" rx="2" ry="2" fill="#132413"/>
<rect x="190.0" y="126.0" width="12.0" height="12.0" rx="2" ry="2" fill="#132413"/>
<rect x="190.0" y="141.0" width="12.0" height="12.0" rx="2" ry="2" fill="#132413"/>
<rect x="190.0" y="156.0" width="12.0" height="12.0" rx="2" ry="2" fill="#132413"/>
<rect x="190.0" y="171.0" width="12.0" height="12.0" rx="2" ry="2" fill="#132413"/>
<rect x="190.0" y="186.0" width="12.0" height="12.0" rx="2" ry="2" fill="#132413"/>
<rect x="205.0" y="96.0" width="12.0" height="12.0" rx="2" ry="2" fill="#132413"/>
<rect x="205.0" y="111.0" width="12.0" height="12.0" rx="2" ry="2" fill="#132413"/>
<rect x="205.0" y="126.0" width="12.0" height="12.0" rx="2" ry="2" fill="#132413"/>
<rect x="205.0" y="141.0" width="12.0" height="12.0" rx="2" ry="2" fill="#132413"/>
<rect x="205.0" y="156.0" width="12.0" height="12.0" rx="2" ry="2" fill="#132413"/>
<rect x="205.0" y="171.0" width="12.0" height="12.0" rx="2" ry="2" fill="#132413"/>
<rect x="205.0" y="186.0" width="12.0" height="12.0" rx="2" ry="2" fill="#132413"/>
<rect x="220.0" y="96.0" width="12.0" height="12.0" rx="2" ry="2" fill="#132413"/>
<rect x="220.0" y="111.0" width="12.0" height="12.0" rx="2" ry="2" fill="#132413"/>
<rect x="220.0" y="126.0" width="12.0" height="12.0" rx="2" ry="2" fill="#132413"/>
<rect x="220.0" y="141.0" width="12.0" height="12.0" rx="2" ry="2" fill="#132413"/>
<rect x="220.0" y="156.0" width="12.0" height="12.0" rx="2" ry="2" fill="#132413"/>
<rect x="220.0" y="171.0" width="12.0" height="12.0" rx="2" ry="2" fill="#132413"/>
<rect x="220.0" y="186.0" width="12.0" height="12.0" rx="2" ry="2" fill="#132413"/>
<rect x="235.0" y="96.0" width="12.0" height="12.0" rx="2" ry="2" fill="#132413"/>
<text x="235.0" y="92.0" font-family="'SF Mono', 'Fira Code', 'Cascadia Code', monospace" font-size="9" fill="#5a8a5a">Jun</text>
<rect x="235.0" y="111.0" width="12.0" height="12.0" rx="2" ry="2" fill="#132413"/>
<rect x="235.0" y="126.0" width="12.0" height="12.0" rx="2" ry="2" fill="#132413"/>
<rect x="235.0" y="141.0" width="12.0" height="12.0" rx="2" ry="2" fill="#132413"/>
<rect x="235.0" y="156.0" width="12.0" height="12.0" rx="2" ry="2" fill="#132413"/>
<rect x="235.0" y="171.0" width="12.0" height="12.0" rx="2" ry="2" fill="#132413"/>
<rect x="235.0" y="186.0" width="12.0" height="12.0" rx="2" ry="2" fill="#132413"/>
<rect x="250.0" y="96.0" width="12.0" height="12.0" rx="2" ry="2" fill="#132413"/>
<rect x="250.0" y="111.0" width="12.0" height="12.0" rx="2" ry="2" fill="#132413"/>
<rect x="250.0" y="126.0" width="12.0" height="12.0" rx="2" ry="2" fill="#132413"/>
<rect x="250.0" y="141.0" width="12.0" height="12.0" rx="2" ry="2" fill="#132413"/>
<rect x="250.0" y="156.0" width="12.0" height="12.0" rx="2" ry="2" fill="#132413"/>
<rect x="250.0" y="171.0" width="12.0" height="12.0" rx="2" ry="2" fill="#132413"/>
<rect x="250.0" y="186.0" width="12.0" height="12.0" rx="2" ry="2" fill="#132413"/>
<rect x="265.0" y="96.0" width="12.0" height="12.0" rx="2" ry="2" fill="#132413"/>
<rect x="265.0" y="111.0" width="12.0" height="12.0" rx="2" ry="2" fill="#132413"/>
<rect x="265.0" y="126.0" width="12.0" height="12.0" rx="2" ry="2" fill="#132413"/>
<rect x="265.0" y="141.0" width="12.0" height="12.0" rx="2" ry="2" fill="#132413"/>
<rect x="265.0" y="156.0" width="12.0" height="12.0" rx="2" ry="2" fill="#132413"/>
<rect x="265.0" y="171.0" width="12.0" height="12.0" rx="2" ry="2" fill="#132413"/>
<rect x="265.0" y="186.0" width="12.0" height="12.0" rx="2" ry="2" fill="#132413"/>
<rect x="280.0" y="96.0" width="12.0" height="12.0" rx="2" ry="2" fill="#132413"/>
<rect x="280.0" y="111.0" width="12.0" height="12.0" rx="2" ry="2" fill="#132413"/>
<rect x="280.0" y="126.0" width="12.0" height="12.0" rx="2" ry="2" fill="#132413"/>
<rect x="280.0" y="141.0" width="12.0" height="12.0" rx="2" ry="2" fill="#132413"/>
<rect x="280.0" y="156.0" width="12.0" height="12.0" rx="2" ry="2" fill="#132413"/>
<rect x="280.0" y="171.0" width="12.0" height="12.0" rx="2" ry="2" fill="#132413"/>
<rect x="280.0" y="186.0" width="12.0" height="12.0" rx="2" ry="2" fill="#132413"/>
<rect x="295.0" y="96.0" width="12.0" height="12.0" rx="2" ry="2" fill="#132413"/>
<rect x="295.0" y="111.0" width="12.0" height="12.0" rx="2" ry="2" fill="#132413"/>
<rect x="295.0" y="126.0" width="12.0" height="12.0" rx="2" ry="2" fill="#132413"/>
<rect x="295.0" y="141.0" width="12.0" height="12.0" rx="2" ry="2" fill="#132413"/>
<rect x="295.0" y="156.0" width="12.0" height="12.0" rx="2" ry="2" fill="#132413"/>
<rect x="295.0" y="171.0" width="12.0" height="12.0" rx="2" ry="2" fill="#132413"/>
<rect x="295.0" y="186.0" width="12.0" height="12.0" rx="2" ry="2" fill="#132413"/>
<rect x="310.0" y="96.0" width="12.0" height="12.0" rx="2" ry="2" fill="#132413"/>
<text x="310.0" y="92.0" font-family="'SF Mono', 'Fira Code', 'Cascadia Code', monospace" font-size="9" fill="#5a8a5a">Jul</text>
<rect x="310.0" y="111.0" width="12.0" height="12.0" rx="2" ry="2" fill="#132413"/>
<rect x="310.0" y="126.0" width="12.0" height="12.0" rx="2" ry="2" fill="#132413"/>
<rect x="310.0" y="141.0" width="12.0" height="12.0" rx="2" ry="2" fill="#132413"/>
<rect x="310.0" y="156.0" width="12.0" height="12.0" rx="2" ry="2" fill="#132413"/>
<rect x="310.0" y="171.0" width="12.0" height="12.0" rx="2" ry="2" fill="#132413"/>
<rect x="310.0" y="186.0" width="12.0" height="12.0" rx="2" ry="2" fill="#132413"/>
<rect x="325.0" y="96.0" width="12.0" height="12.0" rx="2" ry="2" fill="#132413"/>
<rect x="325.0" y="111.0" width="12.0" height="12.0" rx="2" ry="2" fill="#132413"/>
<rect x="325.0" y="126.0" width="12.0" height="12.0" rx="2" ry="2" fill="#132413"/>
<rect x="325.0" y="141.0" width="12.0" height="12.0" rx="2" ry="2" fill="#132413"/>
<rect x="325.0" y="156.0" width="12.0" height="12.0" rx="2" ry="2" fill="#132413"/>
<rect x="325.0" y="171.0" width="12.0" height="12.0" rx="2" ry="2" fill="#132413"/>
<rect x="325.0" y="186.0" width="12.0" height="12.0" rx="2" ry="2" fill="#132413"/>
<rect x="340.0" y="96.0" width="12.0" height="12.0" rx="2" ry="2" fill="#132413"/>
<rect x="340.0" y="111.0" width="12.0" height="12.0" rx="2" ry="2" fill="#132413"/>
<rect x="340.0" y="126.0" width="12.0" height="12.0" rx="2" ry="2" fill="#132413"/>
<rect x="340.0" y="141.0" width="12.0" height="12.0" rx="2" ry="2" fill="#132413"/>
<rect x="340.0" y="156.0" width="12.0" height="12.0" rx="2" ry="2" fill="#132413"/>
<rect x="340.0" y="171.0" width="12.0" height="12.0" rx="2" ry="2" fill="#132413"/>
<rect x="340.0" y="186.0" width="12.0" height="12.0" rx="2" ry="2" fill="#132413"/>
<rect x="355.0" y="96.0" width="12.0" height="12.0" rx="2" ry="2" fill="#132413"/>
<rect x="355.0" y="111.0" width="12.0" height="12.0" rx="2" ry="2" fill="#132413"/>
<rect x="355.0" y="126.0" width="12.0" height="12.0" rx="2" ry="2" fill="#132413"/>
<rect x="355.0" y="141.0" width="12.0" height="12.0" rx="2" ry="2" fill="#132413"/>
<rect x="355.0" y="156.0" width="12.0" height="12.0" rx="2" ry="2" fill="#132413"/>
<rect x="355.0" y="171.0" width="12.0" height="12.0" rx="2" ry="2" fill="#132413"/>
<rect x="355.0" y="186.0" width="12.0" height="12.0" rx="2" ry="2" fill="#132413"/>
<rect x="370.0" y="96.0" width="12.0" height="12.0" rx="2" ry="2" fill="#132413"/>
<text x="370.0" y="92.0" font-family="'SF Mono', 'Fira Code', 'Cascadia Code', monospace" font-size="9" fill="#5a8a5a">Aug</text>
<rect x="370.0" y="111.0" width="12.0" height="12.0" rx="2" ry="2" fill="#132413"/>
<rect x="370.0" y="126.0" width="12.0" height="12.0" rx="2" ry="2" fill="#132413"/>
<rect x="370.0" y="141.0" width="12.0" height="12.0" rx="2" ry="2" fill="#132413"/>
<rect x="370.0" y="156.0" width="12.0" height="12.0" rx="2" ry="2" fill="#132413"/>
<rect x="370.0" y="171.0" width="12.0" height="12.0" rx="2" ry="2" fill="#132413"/>
<rect x="370.0" y="186.0" width="12.0" height="12.0" rx="2" ry="2" fill="#132413"/>
<rect x="385.0" y="96.0" width="12.0" height="12.0" rx="2" ry="2" fill="#132413"/>
<rect x="385.0" y="111.0" width="12.0" height="12.0" rx="2" ry="2" fill="#132413"/>
<rect x="385.0" y="126.0" width="12.0" height="12.0" rx="2" ry="2" fill="#132413"/>
<rect x="385.0" y="141.0" width="12.0" height="12.0" rx="2" ry="2" fill="#132413"/>
<rect x="385.0" y="156.0" width="12.0" height="12.0" rx="2" ry="2" fill="#132413"/>
<rect x="385.0" y="171.0" width="12.0" height="12.0" rx="2" ry="2" fill="#132413"/>
<rect x="385.0" y="186.0" width="12.0" height="12.0" rx="2" ry="2" fill="#132413"/>
<rect x="400.0" y="96.0" width="12.0" height="12.0" rx="2" ry="2" fill="#132413"/>
<rect x="400.0" y="111.0" width="12.0" height="12.0" rx="2" ry="2" fill="#132413"/>
<rect x="400.0" y="126.0" width="12.0" height="12.0" rx="2" ry="2" fill="#132413"/>
<rect x="400.0" y="141.0" width="12.0" height="12.0" rx="2" ry="2" fill="#132413"/>
<rect x="400.0" y="156.0" width="12.0" height="12.0" rx="2" ry="2" fill="#132413"/>
<rect x="400.0" y="171.0" width="12.0" height="12.0" rx="2" ry="2" fill="#132413"/>
<rect x="400.0" y="186.0" width="12.0" height="12.0" rx="2" ry="2" fill="#132413"/>
<rect x="415.0" y="96.0" width="12.0" height="12.0" rx="2" ry="2" fill="#132413"/>
<rect x="415.0" y="111.0" width="12.0" height="12.0" rx="2" ry="2" fill="#132413"/>
<rect x="415.0" y="126.0" width="12.0" height="12.0" rx="2" ry="2" fill="#132413"/>
<rect x="415.0" y="141.0" width="12.0" height="12.0" rx="2" ry="2" fill="#132413"/>
<rect x="415.0" y="156.0" width="12.0" height="12.0" rx="2" ry="2" fill="#132413"/>
<rect x="415.0" y="171.0" width="12.0" height="12.0" rx="2" ry="2" fill="#132413"/>
<rect x="415.0" y="186.0" width="12.0" height="12.0" rx="2" ry="2" fill="#132413"/>
<rect x="430.0" y="96.0" width="12.0" height="12.0" rx="2" ry="2" fill="#132413"/>
<rect x="430.0" y="111.0" width="12.0" height="12.0" rx="2" ry="2" fill="#132413"/>
<rect x="430.0" y="126.0" width="12.0" height="12.0" rx="2" ry="2" fill="#132413"/>
<rect x="430.0" y="141.0" width="12.0" height="12.0" rx="2" ry="2" fill="#132413"/>
<rect x="430.0" y="156.0" width="12.0" height="12.0" rx="2" ry="2" fill="#132413"/>
<rect x="430.0" y="171.0" width="12.0" height="12.0" rx="2" ry="2" fill="#132413"/>
<rect x="430.0" y="186.0" width="12.0" height="12.0" rx="2" ry="2" fill="#132413"/>
<rect x="445.0" y="96.0" width="12.0" height="12.0" rx="2" ry="2" fill="#132413"/>
<text x="445.0" y="92.0" font-family="'SF Mono', 'Fira Code', 'Cascadia Code', monospace" font-size="9" fill="#5a8a5a">Sep</text>
<rect x="445.0" y="111.0" width="12.0" height="12.0" rx="2" ry="2" fill="#132413"/>
<rect x="445.0" y="126.0" width="12.0" height="12.0" rx="2" ry="2" fill="#132413"/>
<rect x="445.0" y="141.0" width="12.0" height="12.0" rx="2" ry="2" fill="#132413"/>
<rect x="445.0" y="156.0" width="12.0" height="12.0" rx="2" ry="2" fill="#132413"/>
<rect x="445.0" y="171.0" width="12.0" height="12.0" rx="2" ry="2" fill="#132413"/>
<rect x="445.0" y="186.0" width="12.0" height="12.0" rx="2" ry="2" fill="#132413"/>
<rect x="460.0" y="96.0" width="12.0" height="12.0" rx="2" ry="2" fill="#132413"/>
<rect x="460.0" y="111.0" width="12.0" height="12.0" rx="2" ry="2" fill="#132413"/>
<rect x="460.0" y="126.0" width="12.0" height="12.0" rx="2" ry="2" fill="#132413"/>
<rect x="460.0" y="141.0" width="12.0" height="12.0" rx="2" ry="2" fill="#132413"/>
<rect x="460.0" y="156.0" width="12.0" height="12.0" rx="2" ry="2" fill="#132413"/>
<rect x="460.0" y="171.0" width="12.0" height="12.0" rx="2" ry="2" fill="#132413"/>
<rect x="460.0" y="186.0" width="12.0" height="12.0" rx="2" ry="2" fill="#132413"/>
<rect x="475.0" y="96.0" width="12.0" height="12.0" rx="2" ry="2" fill="#132413"/>
<rect x="475.0" y="111.0" width="12.0" height="12.0" rx="2" ry="2" fill="#132413"/>
<rect x="475.0" y="126.0" width="12.0" height="12.0" rx="2" ry="2" fill="#132413"/>
<rect x="475.0" y="141.0" width="12.0" height="12.0" rx="2" ry="2" fill="#132413"/>
<rect x="475.0" y="156.0" width="12.0" height="12.0" rx="2" ry="2" fill="#132413"/>
<rect x="475.0" y="171.0" width="12.0" height="12.0" rx="2" ry="2" fill="#132413"/>
<rect x="475.0" y="186.0" width="12.0" height="12.0" rx="2" ry="2" fill="#132413"/>
<rect x="490.0" y="96.0" width="12.0" height="12.0" rx="2" ry="2" fill="#132413"/>
<rect x="490.0" y="111.0" width="12.0" height="12.0" rx="2" ry="2" fill="#132413"/>
<rect x="490.0" y="126.0" width="12.0" height="12.0" rx="2" ry="2" fill="#132413"/>
<rect x="490.0" y="141.0" width="12.0" height="12.0" rx="2" ry="2" fill="#132413"/>
<rect x="490.0" y="156.0" width="12.0" height="12.0" rx="2" ry="2" fill="#132413"/>
<rect x="490.0" y="171.0" width="12.0" height="12.0" rx="2" ry="2" fill="#132413"/>
<rect x="490.0" y="186.0" width="12.0" height="12.0" rx="2" ry="2" fill="#132413"/>
<rect x="505.0" y="96.0" width="12.0" height="12.0" rx="2" ry="2" fill="#132413"/>
<text x="505.0" y="92.0" font-family="'SF Mono', 'Fira Code', 'Cascadia Code', monospace" font-size="9" fill="#5a8a5a">Oct</text>
<rect x="505.0" y="111.0" width="12.0" height="12.0" rx="2" ry="2" fill="#132413"/>
<rect x="505.0" y="126.0" width="12.0" height="12.0" rx="2" ry="2" fill="#132413"/>
<rect x="505.0" y="141.0" width="12.0" height="12.0" rx="2" ry="2" fill="#132413"/>
<rect x="505.0" y="156.0" width="12.0" height="12.0" rx="2" ry="2" fill="#132413"/>
<rect x="505.0" y="171.0" width="12.0" height="12.0" rx="2" ry="2" fill="#132413"/>
<rect x="505.0" y="186.0" width="12.0" height="12.0" rx="2" ry="2" fill="#132413"/>
<rect x="520.0" y="96.0" width="12.0" height="12.0" rx="2" ry="2" fill="#132413"/>
<rect x="520.0" y="111.0" width="12.0" height="12.0" rx="2" ry="2" fill="#132413"/>
<rect x="520.0" y="126.0" width="12.0" height="12.0" rx="2" ry="2" fill="#132413"/>
<rect x="520.0" y="141.0" width="12.0" height="12.0" rx="2" ry="2" fill="#132413"/>
<rect x="520.0" y="156.0" width="12.0" height="12.0" rx="2" ry="2" fill="#132413"/>
<rect x="520.0" y="171.0" width="12.0" height="12.0" rx="2" ry="2" fill="#132413"/>
<rect x="520.0" y="186.0" width="12.0" height="12.0" rx="2" ry="2" fill="#132413"/>
<rect x="535.0" y="96.0" width="12.0" height="12.0" rx="2" ry="2" fill="#132413"/>
<rect x="535.0" y="111.0" width="12.0" height="12.0" rx="2" ry="2" fill="#132413"/>
<rect x="535.0" y="126.0" width="12.0" height="12.0" rx="2" ry="2" fill="#132413"/>
<rect x="535.0" y="141.0" width="12.0" height="12.0" rx="2" ry="2" fill="#132413"/>
<rect x="535.0" y="156.0" width="12.0" height="12.0" rx="2" ry="2" fill="#132413"/>
<rect x="535.0" y="171.0" width="12.0" height="12.0" rx="2" ry="2" fill="#132413"/>
<rect x="535.0" y="186.0" width="12.0" height="12.0" rx="2" ry="2" fill="#132413"/>
<rect x="550.0" y="96.0" width="12.0" height="12.0" rx="2" ry="2" fill="#132413"/>
<rect x="550.0" y="111.0" width="12.0" height="12.0" rx="2" ry="2" fill="#132413"/>
<rect x="550.0" y="126.0" width="12.0" height="12.0" rx="2" ry="2" fill="#132413"/>
<rect x="550.0" y="141.0" width="12.0" height="12.0" rx="2" ry="2" fill="#132413"/>
<rect x="550.0" y="156.0" width="12.0" height="12.0" rx="2" ry="2" fill="#132413"/>
<rect x="550.0" y="171.0" width="12.0" height="12.0" rx="2" ry="2" fill="#132413"/>
<rect x="550.0" y="186.0" width="12.0" height="12.0" rx="2" ry="2" fill="#132413"/>
<rect x="565.0" y="96.0" width="12.0" height="12.0" rx="2" ry="2" fill="#132413"/>
<text x="565.0" y="92.0" font-family="'SF Mono', 'Fira Code', 'Cascadia Code', monospace" font-size="9" fill="#5a8a5a">Nov</text>
<rect x="565.0" y="111.0" width="12.0" height="12.0" rx="2" ry="2" fill="#132413"/>
<rect x="565.0" y="126.0" width="12.0" height="12.0" rx="2" ry="2" fill="#132413"/>
<rect x="565.0" y="141.0" width="12.0" height="12.0" rx="2" ry="2" fill="#132413"/>
<rect x="565.0" y="156.0" width="12.0" height="12.0" rx="2" ry="2" fill="#132413"/>
<rect x="565.0" y="171.0" width="12.0" height="12.0" rx="2" ry="2" fill="#132413"/>
<rect x="565.0" y="186.0" width="12.0" height="12.0" rx="2" ry="2" fill="#132413"/>
<rect x="580.0" y="96.0" width="12.0" height="12.0" rx="2" ry="2" fill="#132413"/>
<rect x="580.0" y="111.0" width="12.0" height="12.0" rx="2" ry="2" fill="#132413"/>
<rect x="580.0" y="126.0" width="12.0" height="12.0" rx="2" ry="2" fill="#132413"/>
<rect x="580.0" y="141.0" width="12.0" height="12.0" rx="2" ry="2" fill="#132413"/>
<rect x="580.0" y="156.0" width="12.0" height="12.0" rx="2" ry="2" fill="#132413"/>
<rect x="580.0" y="171.0" width="12.0" height="12.0" rx="2" ry="2" fill="#132413"/>
<rect x="580.0" y="186.0" width="12.0" height="12.0" rx="2" ry="2" fill="#132413"/>
<rect x="595.0" y="96.0" width="12.0" height="12.0" rx="2" ry="2" fill="#132413"/>
<rect x="595.0" y="111.0" width="12.0" height="12.0" rx="2" ry="2" fill="#132413"/>
<rect x="595.0" y="126.0" width="12.0" height="12.0" rx="2" ry="2" fill="#132413"/>
<rect x="595.0" y="141.0" width="12.0" height="12.0" rx="2" ry="2" fill="#132413"/>
<rect x="595.0" y="156.0" width="12.0" height="12.0" rx="2" ry="2" fill="#132413"/>
<rect x="595.0" y="171.0" width="12.0" height="12.0" rx="2" ry="2" fill="#132413"/>
<rect x="595.0" y="186.0" width="12.0" height="12.0" rx="2" ry="2" fill="#132413"/>
<rect x="610.0" y="96.0" width="12.0" height="12.0" rx="2" ry="2" fill="#132413"/>
<rect x="610.0" y="111.0" width="12.0" height="12.0" rx="2" ry="2" fill="#132413"/>
<rect x="610.0" y="126.0" width="12.0" height="12.0" rx="2" ry="2" fill="#132413"/>
<rect x="610.0" y="141.0" width="12.0" height="12.0" rx="2" ry="2" fill="#132413"/>
<rect x="610.0" y="156.0" width="12.0" height="12.0" rx="2" ry="2" fill="#132413"/>
<rect x="610.0" y="171.0" width="12.0" height="12.0" rx="2" ry="2" fill="#132413"/>
<rect x="610.0" y="186.0" width="12.0" height="12.0" rx="2" ry="2" fill="#132413"/>
<rect x="625.0" y="96.0" width="12.0" height="12.0" rx="2" ry="2" fill="#132413"/>
<rect x="625.0" y="111.0" width="12.0" height="12.0" rx="2" ry="2" fill="#132413"/>
<rect x="625.0" y="126.0" width="12.0" height="12.0" rx="2" ry="2" fill="#132413"/>
<rect x="625.0" y="141.0" width="12.0" height="12.0" rx="2" ry="2" fill="#132413"/>
<rect x="625.0" y="156.0" width="12.0" height="12.0" rx="2" ry="2" fill="#132413"/>
<rect x="625.0" y="171.0" width="12.0" height="12.0" rx="2" ry="2" fill="#132413"/>
<rect x="625.0" y="186.0" width="12.0" height="12.0" rx="2" ry="2" fill="#132413"/>
<rect x="640.0" y="96.0" width="12.0" height="12.0" rx="2" ry="2" fill="#132413"/>
<text x="640.0" y="92.0" font-family="'SF Mono', 'Fira Code', 'Cascadia Code', monospace" font-size="9" fill="#5a8a5a">Dec</text>
<rect x="640.0" y="111.0" width="12.0" height="12.0" rx="2" ry="2" fill="#132413"/>
<rect x="640.0" y="126.0" width="12.0" height="12.0" rx="2" ry="2" fill="#132413"/>
<rect x="640.0" y="141.0" width="12.0" height="12.0" rx="2" ry="2" fill="#132413"/>
<rect x="640.0" y="156.0" width="12.0" height="12.0" rx="2" ry="2" fill="#132413"/>
<rect x="640.0" y="171.0" width="12.0" height="12.0" rx="2" ry="2" fill="#132413"/>
<rect x="640.0" y="186.0" width="12.0" height="12.0" rx="2" ry="2" fill="#132413"/>
<rect x="655.0" y="96.0" width="12.0" height="12.0" rx="2" ry="2" fill="#132413"/>
<rect x="655.0" y="111.0" width="12.0" height="12.0" rx="2" ry="2" fill="#132413"/>
<rect x="655.0" y="126.0" width="12.0" height="12.0" rx="2" ry="2" fill="#132413"/>
<rect x="655.0" y="141.0" width="12.0" height="12.0" rx="2" ry="2" fill="#132413"/>
<rect x="655.0" y="156.0" width="12.0" height="12.0" rx="2" ry="2" fill="#132413"/>
<rect x="655.0" y="171.0" width="12.0" height="12.0" rx="2" ry="2" fill="#132413"/>
<rect x="655.0" y="186.0" width="12.0" height="12.0" rx="2" ry="2" fill="#132413"/>
<rect x="670.0" y="96.0" width="12.0" height="12.0" rx="2" ry="2" fill="#132413"/>
<rect x="670.0" y="111.0" width="12.0" height="12.0" rx="2" ry="2" fill="#132413"/>
<rect x="670.0" y="126.0" width="12.0" height="12.0" rx="2" ry="2" fill="#132413"/>
<rect x="670.0" y="141.0" width="12.0" height="12.0" rx="2" ry="2" fill="#132413"/>
<rect x="670.0" y="156.0" width="12.0" height="12.0" rx="2" ry="2" fill="#132413"/>
<rect x="670.0" y="171.0" width="12.0" height="12.0" rx="2" ry="2" fill="#132413"/>
<rect x="670.0" y="186.0" width="12.0" height="12.0" rx="2" ry="2" fill="#132413"/>
<rect x="685.0" y="96.0" width="12.0" height="12.0" rx="2" ry="2" fill="#132413"/>
<rect x="685.0" y="111.0" width="12.0" height="12.0" rx="2" ry="2" fill="#132413"/>
<rect x="685.0" y="126.0" width="12.0" height="12.0" rx="2" ry="2" fill="#132413"/>
<rect x="685.0" y="141.0" width="12.0" height="12.0" rx="2" ry="2" fill="#132413"/>
<rect x="685.0" y="156.0" width="12.0" height="12.0" rx="2" ry="2" fill="#132413"/>
<rect x="685.0" y="171.0" width="12.0" height="12.0" rx="2" ry="2" fill="#132413"/>
<rect x="685.0" y="186.0" width="12.0" height="12.0" rx="2" ry="2" fill="#132413"/>
<rect x="700.0" y="96.0" width="12.0" height="12.0" rx="2" ry="2" fill="#132413"/>
<text x="700.0" y="92.0" font-family="'SF Mono', 'Fira Code', 'Cascadia Code', monospace" font-size="9" fill="#5a8a5a">Jan</text>
<rect x="700.0" y="111.0" width="12.0" height="12.0" rx="2" ry="2" fill="#132413"/>
<rect x="700.0" y="126.0" width="12.0" height="12.0" rx="2" ry="2" fill="#132413"/>
<rect x="700.0" y="141.0" width="12.0" height="12.0" rx="2" ry="2" fill="#132413"/>
<rect x="700.0" y="156.0" width="12.0" height="12.0" rx="2" ry="2" fill="#132413"/>
<rect x="700.0" y="171.0" width="12.0" height="12.0" rx="2" ry="2" fill="#132413"/>
<rect x="700.0" y="186.0" width="12.0" height="12.0" rx="2" ry="2" fill="#132413"/>
<rect x="715.0" y="96.0" width="12.0" height="12.0" rx="2" ry="2" fill="#132413"/>
<rect x="715.0" y="111.0" width="12.0" height="12.0" rx="2" ry="2" fill="#132413"/>
<rect x="715.0" y="126.0" width="12.0" height="12.0" rx="2" ry="2" fill="#132413"/>
<rect x="715.0" y="141.0" width="12.0" height="12.0" rx="2" ry="2" fill="#132413"/>
<rect x="715.0" y="156.0" width="12.0" height="12.0" rx="2" ry="2" fill="#132413"/>
<rect x="715.0" y="171.0" width="12.0" height="12.0" rx="2" ry="2" fill="#132413"/>
<rect x="715.0" y="186.0" width="12.0" height="12.0" rx="2" ry="2" fill="#132413"/>
<rect x="730.0" y="96.0" width="12.0" height="12.0" rx="2" ry="2" fill="#132413"/>
<rect x="730.0" y="111.0" width="12.0" height="12.0" rx="2" ry="2" fill="#132413"/>
<rect x="730.0" y="126.0" width="12.0" height="12.0" rx="2" ry="2" fill="#132413"/>
<rect x="730.0" y="141.0" width="12.0" height="12.0" rx="2" ry="2" fill="#132413"/>
<rect x="730.0" y="156.0" width="12.0" height="12.0" rx="2" ry="2" fill="#132413"/>
<rect x="730.0" y="171.0" width="12.0" height="12.0" rx="2" ry="2" fill="#132413"/>
<rect x="730.0" y="186.0" width="12.0" height="12.0" rx="2" ry="2" fill="#132413"/>
<rect x="745.0" y="96.0" width="12.0" height="12.0" rx="2" ry="2" fill="#132413"/>
<rect x="745.0" y="111.0" width="12.0" height="12.0" rx="2" ry="2" fill="#132413"/>
<rect x="745.0" y="126.0" width="12.0" height="12.0" rx="2" ry="2" fill="#132413"/>
<rect x="745.0" y="141.0" width="12.0" height="12.0" rx="2" ry="2" fill="#132413"/>
<rect x="745.0" y="156.0" width="12.0" height="12.0" rx="2" ry="2" fill="#132413"/>
<rect x="745.0" y="171.0" width="12.0" height="12.0" rx="2" ry="2" fill="#132413"/>
<rect x="745.0" y="186.0" width="12.0" height="12.0" rx="2" ry="2" fill="#132413"/>
<rect x="760.0" y="96.0" width="12.0" height="12.0" rx="2" ry="2" fill="#132413"/>
<text x="760.0" y="92.0" font-family="'SF Mono', 'Fira Code', 'Cascadia Code', monospace" font-size="9" fill="#5a8a5a">Feb</text>
<rect x="760.0" y="111.0" width="12.0" height="12.0" rx="2" ry="2" fill="#132413"/>
<rect x="760.0" y="126.0" width="12.0" height="12.0" rx="2" ry="2" fill="#132413"/>
<rect x="760.0" y="141.0" width="12.0" height="12.0" rx="2" ry="2" fill="#132413"/>
<rect x="760.0" y="156.0" width="12.0" height="12.0" rx="2" ry="2" fill="#132413"/>
<rect x="760.0" y="171.0" width="12.0" height="12.0" rx="2" ry="2" fill="#132413"/>
<rect x="760.0" y="186.0" width="12.0" height="12.0" rx="2" ry="2" fill="#132413"/>
<rect x="775.0" y="96.0" width="12.0" height="12.0" rx="2" ry="2" fill="#132413"/>
<rect x="775.0" y="111.0" width="12.0" height="12.0" rx="2" ry="2" fill="#132413"/>
<rect x="775.0" y="126.0" width="12.0" height="12.0" rx="2" ry="2" fill="#132413"/>
<rect x="775.0" y="141.0" width="12.0" height="12.0" rx="2" ry="2" fill="#132413"/>
<rect x="775.0" y="156.0" width="12.0" height="12.0" rx="2" ry="2" fill="#132413"/>
<rect x="775.0" y="171.0" width="12.0" height="12.0" rx="2" ry="2" fill="#132413"/>
<rect x="775.0" y="186.0" width="12.0" height="12.0" rx="2" ry="2" fill="#132413"/>
<rect x="790.0" y="96.0" width="12.0" height="12.0" rx="2" ry="2" fill="#132413"/>
<rect x="790.0" y="111.0" width="12.0" height="12.0" rx="2" ry="2" fill="#132413"/>
<rect x="790.0" y="126.0" width="12.0" height="12.0" rx="2" ry="2" fill="#132413"/>
<rect x="790.0" y="141.0" width="12.0" height="12.0" rx="2" ry="2" fill="#132413"/>
<rect x="790.0" y="156.0" width="12.0" height="12.0" rx="2" ry="2" fill="#132413"/>
<rect x="790.0" y="171.0" width="12.0" height="12.0" rx="2" ry="2" fill="#132413"/>
<rect x="790.0" y="186.0" width="12.0" height="12.0" rx="2" ry="2" fill="#132413"/>
<rect x="805.0" y="96.0" width="12.0" height="12.0" rx="2" ry="2" fill="#132413"/>
<rect x="805.0" y="111.0" width="12.0" height="12.0" rx="2" ry="2" fill="#132413"/>
<rect x="805.0" y="126.0" width="12.0" height="12.0" rx="2" ry="2" fill="#132413"/>
<rect x="805.0" y="141.0" width="12.0" height="12.0" rx="2" ry="2" fill="#132413"/>
<rect x="805.0" y="156.0" width="12.0" height="12.0" rx="2" ry="2" fill="#132413"/>
<rect x="805.0" y="171.0" width="12.0" height="12.0" rx="2" ry="2" fill="#132413"/>
<rect x="805.0" y="186.0" width="12.0" height="12.0" rx="2" ry="2" fill="#132413"/>
<rect x="820.0" y="96.0" width="12.0" height="12.0" rx="2" ry="2" fill="#132413"/>
<text x="820.0" y="92.0" font-family="'SF Mono', 'Fira Code', 'Cascadia Code', monospace" font-size="9" fill="#5a8a5a">Mar</text>
<rect x="820.0" y="111.0" width="12.0" height="12.0" rx="2" ry="2" fill="#132413"/>
<rect x="820.0" y="126.0" width="12.0" height="12.0" rx="2" ry="2" fill="#132413"/>
<rect x="820.0" y="141.0" width="12.0" height="12.0" rx="2" ry="2" fill="#132413"/>
<rect x="820.0" y="156.0" width="12.0" height="12.0" rx="2" ry="2" fill="#132413"/>
<rect x="820.0" y="171.0" width="12.0" height="12.0" rx="2" ry="2" fill="#132413"/>
<rect x="820.0" y="186.0" width="12.0" height="12.0" rx="2" ry="2" fill="#132413"/>
<rect x="835.0" y="96.0" width="12.0" height="12.0" rx="2" ry="2" fill="#132413"/>
<rect x="835.0" y="111.0" width="12.0" height="12.0" rx="2" ry="2" fill="#132413"/>
<rect x="835.0" y="126.0" width="12.0" height="12.0" rx="2" ry="2" fill="#132413"/>
<rect x="835.0" y="141.0" width="12.0" height="12.0" rx="2" ry="2" fill="#132413"/>
<rect x="835.0" y="156.0" width="12.0" height="12.0" rx="2" ry="2" fill="#132413"/>
<rect x="835.0" y="171.0" width="12.0" height="12.0" rx="2" ry="2" fill="#7bc67b"/>
<rect x="835.0" y="186.0" width="12.0" height="12.0" rx="2" ry="2" fill="#132413"/>
<rect x="40.0" y="235.0" width="360.0" height="48.0" rx="6" ry="6" fill="#0f220f" stroke="#1e3a1e" stroke-width="1"/>
<text x="52.0" y="251.0" font-family="'Segoe UI', system-ui, -apple-system, sans-serif" font-size="10" fill="#5a8a5a">Commits</text>
<text x="52.0" y="271.0" font-family="'Segoe UI', system-ui, -apple-system, sans-serif" font-size="16" font-weight="600" fill="#b8d4b8">14</text>
<rect x="420.0" y="235.0" width="360.0" height="48.0" rx="6" ry="6" fill="#0f220f" stroke="#1e3a1e" stroke-width="1"/>
<text x="432.0" y="251.0" font-family="'Segoe UI', system-ui, -apple-system, sans-serif" font-size="10" fill="#5a8a5a">Authors</text>
<text x="432.0" y="271.0" font-family="'Segoe UI', system-ui, -apple-system, sans-serif" font-size="16" font-weight="600" fill="#b8d4b8">1</text>
<rect x="800.0" y="235.0" width="360.0" height="48.0" rx="6" ry="6" fill="#0f220f" stroke="#1e3a1e" stroke-width="1"/>
<text x="812.0" y="251.0" font-family="'Segoe UI', system-ui, -apple-system, sans-serif" font-size="10" fill="#5a8a5a">Files</text>
<text x="812.0" y="271.0" font-family="'Segoe UI', system-ui, -apple-system, sans-serif" font-size="16" font-weight="600" fill="#b8d4b8">24</text>
<rect x="40.0" y="293.0" width="360.0" height="48.0" rx="6" ry="6" fill="#0f220f" stroke="#1e3a1e" stroke-width="1"/>
<text x="52.0" y="309.0" font-family="'Segoe UI', system-ui, -apple-system, sans-serif" font-size="10" fill="#5a8a5a">First Commit</text>
<text x="52.0" y="329.0" font-family="'Segoe UI', system-ui, -apple-system, sans-serif" font-size="16" font-weight="600" fill="#b8d4b8">Mar 13, 2026</text>
<rect x="420.0" y="293.0" width="360.0" height="48.0" rx="6" ry="6" fill="#0f220f" stroke="#1e3a1e" stroke-width="1"/>
<text x="432.0" y="309.0" font-family="'Segoe UI', system-ui, -apple-system, sans-serif" font-size="10" fill="#5a8a5a">Last Commit</text>
<text x="432.0" y="329.0" font-family="'Segoe UI', system-ui, -apple-system, sans-serif" font-size="16" font-weight="600" fill="#b8d4b8">Mar 13, 2026</text>
<rect x="800.0" y="293.0" width="360.0" height="48.0" rx="6" ry="6" fill="#0f220f" stroke="#1e3a1e" stroke-width="1"/>
<text x="812.0" y="309.0" font-family="'Segoe UI', system-ui, -apple-system, sans-serif" font-size="10" fill="#5a8a5a">Active Days</text>
<text x="812.0" y="329.0" font-family="'Segoe UI', system-ui, -apple-system, sans-serif" font-size="16" font-weight="600" fill="#b8d4b8">1</text>
<text x="40" y="352" font-family="'Segoe UI', system-ui, -apple-system, sans-serif" font-size="11" fill="#5a8a5a">Hourly Activity</text>
<rect x="40.0" y="378.0" width="21.3" height="110.0" rx="1" fill="#4caf50" opacity="0.85"/>
<rect x="62.3" y="488.0" width="21.3" height="0.0" rx="1" fill="#4caf50" opacity="0.85"/>
<rect x="84.6" y="488.0" width="21.3" height="0.0" rx="1" fill="#4caf50" opacity="0.85"/>
<rect x="106.9" y="488.0" width="21.3" height="0.0" rx="1" fill="#4caf50" opacity="0.85"/>
<rect x="129.2" y="488.0" width="21.3" height="0.0" rx="1" fill="#4caf50" opacity="0.85"/>
<rect x="151.5" y="488.0" width="21.3" height="0.0" rx="1" fill="#4caf50" opacity="0.85"/>
<rect x="173.8" y="488.0" width="21.3" height="0.0" rx="1" fill="#4caf50" opacity="0.85"/>
<rect x="196.0" y="488.0" width="21.3" height="0.0" rx="1" fill="#4caf50" opacity="0.85"/>
<rect x="218.3" y="488.0" width="21.3" height="0.0" rx="1" fill="#4caf50" opacity="0.85"/>
<rect x="240.6" y="488.0" width="21.3" height="0.0" rx="1" fill="#4caf50" opacity="0.85"/>
<rect x="262.9" y="488.0" width="21.3" height="0.0" rx="1" fill="#4caf50" opacity="0.85"/>
<rect x="285.2" y="488.0" width="21.3" height="0.0" rx="1" fill="#4caf50" opacity="0.85"/>
<rect x="307.5" y="488.0" width="21.3" height="0.0" rx="1" fill="#4caf50" opacity="0.85"/>
<rect x="329.8" y="488.0" width="21.3" height="0.0" rx="1" fill="#4caf50" opacity="0.85"/>
<rect x="352.1" y="488.0" width="21.3" height="0.0" rx="1" fill="#4caf50" opacity="0.85"/>
<rect x="374.4" y="488.0" width="21.3" height="0.0" rx="1" fill="#4caf50" opacity="0.85"/>
<rect x="396.7" y="488.0" width="21.3" height="0.0" rx="1" fill="#4caf50" opacity="0.85"/>
<rect x="419.0" y="488.0" width="21.3" height="0.0" rx="1" fill="#4caf50" opacity="0.85"/>
<rect x="441.3" y="488.0" width="21.3" height="0.0" rx="1" fill="#4caf50" opacity="0.85"/>
<rect x="463.5" y="488.0" width="21.3" height="0.0" rx="1" fill="#4caf50" opacity="0.85"/>
<rect x="485.8" y="488.0" width="21.3" height="0.0" rx="1" fill="#4caf50" opacity="0.85"/>
<rect x="508.1" y="488.0" width="21.3" height="0.0" rx="1" fill="#4caf50" opacity="0.85"/>
<rect x="530.4" y="488.0" width="21.3" height="0.0" rx="1" fill="#4caf50" opacity="0.85"/>
<rect x="552.7" y="488.0" width="21.3" height="0.0" rx="1" fill="#4caf50" opacity="0.85"/>
<text x="615" y="352" font-family="'Segoe UI', system-ui, -apple-system, sans-serif" font-size="11" fill="#5a8a5a">Languages</text>
<rect x="615.0" y="366.0" width="317.9" height="12.0" fill="#3178c6"/>
<rect x="932.9" y="366.0" width="68.1" height="12.0" fill="#8b8b8b"/>
<rect x="1001.0" y="366.0" width="68.1" height="12.0" fill="#083fa1"/>
<rect x="1069.2" y="366.0" width="68.1" height="12.0" fill="#292929"/>
<rect x="1137.3" y="366.0" width="22.7" height="12.0" fill="#cb171e"/>
<rect x="615.0" y="384.0" width="10" height="10" rx="2" fill="#3178c6"/>
<text x="629.0" y="392.0" font-family="'Segoe UI', system-ui, -apple-system, sans-serif" font-size="11" fill="#b8d4b8">TypeScript <tspan fill="#5a8a5a">58%</tspan></text>
<rect x="887.5" y="384.0" width="10" height="10" rx="2" fill="#8b8b8b"/>
<text x="901.5" y="392.0" font-family="'Segoe UI', system-ui, -apple-system, sans-serif" font-size="11" fill="#b8d4b8">Other <tspan fill="#5a8a5a">13%</tspan></text>
<rect x="615.0" y="402.0" width="10" height="10" rx="2" fill="#083fa1"/>
<text x="629.0" y="410.0" font-family="'Segoe UI', system-ui, -apple-system, sans-serif" font-size="11" fill="#b8d4b8">Markdown <tspan fill="#5a8a5a">13%</tspan></text>
<rect x="887.5" y="402.0" width="10" height="10" rx="2" fill="#292929"/>
<text x="901.5" y="410.0" font-family="'Segoe UI', system-ui, -apple-system, sans-serif" font-size="11" fill="#b8d4b8">JSON <tspan fill="#5a8a5a">13%</tspan></text>
<rect x="615.0" y="420.0" width="10" height="10" rx="2" fill="#cb171e"/>
<text x="629.0" y="428.0" font-family="'Segoe UI', system-ui, -apple-system, sans-serif" font-size="11" fill="#b8d4b8">YAML <tspan fill="#5a8a5a">4%</tspan></text>
<text x="40" y="502" font-family="'Segoe UI', system-ui, -apple-system, sans-serif" font-size="11" fill="#5a8a5a">Top Contributors</text>
<text x="40" y="522" font-family="'Segoe UI', system-ui, -apple-system, sans-serif" font-size="12" fill="#b8d4b8">Kerim Gülen</text>
<rect x="140.0" y="512.0" width="920.0" height="14.0" rx="2" fill="#4caf50" opacity="0.85"/>
<text x="1068.0" y="522" font-family="'Segoe UI', system-ui, -apple-system, sans-serif" font-size="11" fill="#5a8a5a">14 (100%)</text>
<text x="600" y="768" font-family="'Segoe UI', system-ui, -apple-system, sans-serif" font-size="11" fill="#5a8a5a" text-anchor="middle">Generated with git-poster</text>
</svg>